<?xml version="1.0" encoding="utf-8" standalone="yes"?>
<!DOCTYPE svg PUBLIC "-//W3C//DTD SVG 1.1//EN" "http://www.w3.org/Graphics/SVG/1.1/DTD/svg11.dtd">
<svg width="686" height="541" viewBox="0 0 686 541" style="fill:none;stroke:none;fill-rule:evenodd;clip-rule:evenodd;stroke-linecap:round;stroke-linejoin:round;stroke-miterlimit:1.5;" version="1.1" xmlns="http://www.w3.org/2000/svg" xmlns:xlink="http://www.w3.org/1999/xlink"><style class="text-font-style fontImports" data-font-family="Shantell Sans">@import url('https://fonts.googleapis.com/css2?family=Shantell+Sans:wght@300..800&amp;display=block');</style><g id="items" style="isolation: isolate"><g id="blend" style="mix-blend-mode: normal"><g id="g-root-0.g-0_fr_1hhl87bs31nut-fill" data-item-order="-332630" transform="translate(4, 217)"><g id="0.g-0_fr_1hhl87bs31nut-fill" stroke="none" fill="#ebebeb"><g><path d="M 624.7 85.3L 620.3 78.2L 597.8 79.9L 607.7 95.8ZM 597.8 79.9L 585.7 108.4L 606.3 111L 620.3 78.2ZM 606.3 111L 596.7 49.6L 576.4 49.4L 585.7 108.4ZM 576.4 49.4L 562.2 127.8L 582.4 128.6L 596.7 49.6ZM 582.4 128.6L 572.4 29L 552.3 29L 562.2 127.8ZM 552.3 29L 542.9 126.8L 563 126.7L 572.4 29ZM 563 126.7L 553.7 39.8L 533.6 39.2L 542.9 126.8ZM 533.6 39.2L 518 131.6L 538.1 132.6L 553.7 39.8ZM 538.1 132.6L 531.2 34.1L 511.1 33.2L 518 131.6ZM 511.1 33.2L 495.1 131.4L 514.9 134.5L 531.2 34.1ZM 514.9 134.5L 518.4 112L 498.6 108.9L 495.1 131.4ZM 383.6 120.4L 372.7 35.1L 352.6 35.5L 363.8 122.9ZM 352.6 35.5L 344.3 131.5L 364.7 128L 372.7 35.1ZM 364.7 128L 353.7 103.4L 335.4 111.5L 344.3 131.5ZM 223.9 108.4L 217.9 37.9L 197.8 37.7L 204 110.1ZM 197.8 37.7L 189 124.8L 209.1 125.2L 217.9 37.9ZM 209.1 125.2L 207.7 102L 187.7 103.2L 189 124.8ZM 78 92.7L 66.9 33.9L 46.6 34.2L 58.4 96.4ZM 46.6 34.2L 31.2 132.1L 51.2 133.4L 66.9 33.9ZM 51.2 133.4L 48.6 36.3L 28.6 34.5L 31.2 132.1ZM 28.6 34.5L 9.5 125L 29.7 126L 48.6 36.3ZM 29.7 126L 22.2 58.2L 2.4 60.4L 9.5 125Z" fill-rule="nonzero"></path></g></g></g><g id="g-root-1.g-1_fr_dju66fs31pfr-fill" data-item-order="-332626" transform="translate(28, 206)"><g id="1.g-1_fr_dju66fs31pfr-fill" stroke="none" fill="#dce9ff"><g><path d="M 178.3 7.1L 182.4 7.8L 160.3 24.7L 156.9 47.6L 178.3 38.8L 180 27.5L 175.8 27ZM 178.3 38.8L 138.7 8.4L 124.6 22.8L 156.9 47.6ZM 124.6 22.8L 163.6 71.5L 177.2 56.4L 138.7 8.4ZM 177.2 56.4L 102 8.6L 89 24L 163.6 71.5ZM 89 24L 158.7 100.6L 172.3 85.8L 102 8.6ZM 172.3 85.8L 70 7L 56.5 21.9L 158.7 100.6ZM 56.5 21.9L 154.7 125.7L 167.9 110.6L 70 7ZM 167.9 110.6L 59.9 33.1L 47 48.5L 154.7 125.7ZM 47 48.5L 150.9 150.6L 164.4 135.8L 59.9 33.1ZM 164.4 135.8L 64.7 51.2L 50.8 65.6L 150.9 150.6ZM 50.8 65.6L 145.9 170.2L 159.6 155.5L 64.7 51.2ZM 159.6 155.5L 57.6 75.1L 44.1 89.9L 145.9 170.2ZM 44.1 89.9L 144 194.8L 157.7 180.2L 57.6 75.1ZM 157.7 180.2L 57.5 97L 43 111L 144 194.8ZM 43 111L 109 195.6L 123 181L 57.5 97ZM 123 181L 47.6 127.9L 34 142.8L 109 195.6ZM 34 142.8L 73.9 190.1L 87.6 175.3L 47.6 127.9ZM 87.6 175.3L 50.7 148.8L 32.6 160.4L 73.9 190.1ZM 32.6 160.4L 38.2 188.7L 56.6 178.5L 50.7 148.8ZM 56.6 178.5L 47.1 169.7L 33.4 184.2L 38.2 188.7Z" fill-rule="nonzero"></path></g></g><g id="1.g-1_fr_dju66fs31pfr-fill" stroke="none" fill="#dce9ff"><g><path d="M 172.4 26.6L 182.7 45.1L 200.2 35.4L 189.9 16.9Z" fill-rule="nonzero"></path></g></g><g id="1.g-1_fr_dju66fs31pfr-fill" stroke="none" fill="#dce9ff"><g></g></g></g><g id="g-root-2.g-2_fr_1hiu6djs31q0z-fill" data-item-order="-332618" transform="translate(183.53500366210938, 206)"><g id="2.g-2_fr_1hiu6djs31q0z-fill" stroke="none" fill="#c8ffe5"><g><path d="M 180.4 8.4L 181.1 8.6L 159.3 24L 175.8 27.9ZM 159.3 24L 156.8 46.7L 177.7 39.9L 181.1 8.6ZM 177.7 39.9L 143.9 3.1L 127.5 14.8L 156.8 46.7ZM 127.5 14.8L 159.4 74L 175 60.9L 143.9 3.1ZM 175 60.9L 109.6 9.2L 95.6 23.7L 159.4 74ZM 95.6 23.7L 155.5 94.9L 169.4 80.5L 109.6 9.2ZM 169.4 80.5L 74.4 6L 60.7 20.7L 155.5 94.9ZM 60.7 20.7L 154.4 123.8L 168 109L 74.4 6ZM 168 109L 61 27.4L 47.6 42.4L 154.4 123.8ZM 47.6 42.4L 149.6 149.6L 163 134.7L 61 27.4ZM 163 134.7L 55.9 52.7L 43.1 68.1L 149.6 149.6ZM 43.1 68.1L 150.6 166.1L 163.2 150.5L 55.9 52.7ZM 163.2 150.5L 60.6 77.6L 47.7 93L 150.6 166.1ZM 47.7 93L 146.8 191.6L 159.6 176.2L 60.6 77.6ZM 159.6 176.2L 55.2 103.4L 41.5 118.2L 146.8 191.6ZM 41.5 118.2L 104.1 194.9L 118.3 180.6L 55.2 103.4ZM 118.3 180.6L 48.8 124.4L 34.3 138.4L 104.1 194.9ZM 34.3 138.4L 75.5 192.9L 89.3 178L 48.8 124.4ZM 89.3 178L 47.8 151.3L 28.7 162.8L 75.5 192.9ZM 28.7 162.8L 30.9 189.9L 50.1 179.8L 47.8 151.3ZM 50.1 179.8L 41.3 172.7L 28.8 188.2L 30.9 189.9Z" fill-rule="nonzero"></path></g></g><g id="2.g-2_fr_1hiu6djs31q0z-fill" stroke="none" fill="#c8ffe5"><g><path d="M 172.4 26.6L 182.7 45.1L 200.2 35.4L 189.9 16.9Z" fill-rule="nonzero"></path></g></g><g id="2.g-2_fr_1hiu6djs31q0z-fill" stroke="none" fill="#c8ffe5"><g></g></g></g><g id="g-root-3.g-3_fr_vcd4ufs31p8v-fill" data-item-order="-332610" transform="translate(339.50396728515625, 206)"><g id="3.g-3_fr_vcd4ufs31p8v-fill" stroke="none" fill="#e9ffb9"><g><path d="M 181.4 5.7L 174.8 2.3L 157.2 15.8L 172.3 23.5ZM 157.2 15.8L 163.9 47.2L 181.5 34L 174.8 2.3ZM 181.5 34L 136.3 9.8L 122.8 25.2L 163.9 47.2ZM 122.8 25.2L 157.3 73.2L 172.2 59.6L 136.3 9.8ZM 172.2 59.6L 106.4 2L 91.9 15.8L 157.3 73.2ZM 91.9 15.8L 157.4 97.7L 171.6 83.5L 106.4 2ZM 171.6 83.5L 72.1 3.8L 58.2 18.3L 157.4 97.7ZM 58.2 18.3L 153.5 127.4L 167.5 113L 72.1 3.8ZM 167.5 113L 61.9 27.4L 48.3 42.1L 153.5 127.4ZM 48.3 42.1L 150.6 148.1L 164 133.1L 61.9 27.4ZM 164 133.1L 64.7 57L 51.6 72.2L 150.6 148.1ZM 51.6 72.2L 152.7 170.1L 165.7 154.8L 64.7 57ZM 165.7 154.8L 61 77.7L 47.7 92.7L 152.7 170.1ZM 47.7 92.7L 142.7 192.7L 156.2 178L 61 77.7ZM 156.2 178L 55.8 98.1L 41.3 112.1L 142.7 192.7ZM 41.3 112.1L 103.8 197L 118.5 183.3L 55.8 98.1ZM 118.5 183.3L 47.5 123.8L 32.8 137.5L 103.8 197ZM 32.8 137.5L 71.8 191L 86 176.5L 47.5 123.8ZM 86 176.5L 50.4 151.9L 30.4 162.4L 71.8 191ZM 30.4 162.4L 30.4 191.6L 50.4 186.3L 50.4 151.9ZM 50.4 186.3L 44.1 175.3L 26.7 185.2L 30.4 191.6Z" fill-rule="nonzero"></path></g></g><g id="3.g-3_fr_vcd4ufs31p8v-fill" stroke="none" fill="#e9ffb9"><g><path d="M 172.4 26.6L 182.7 45.1L 200.2 35.4L 189.9 16.9Z" fill-rule="nonzero"></path></g></g><g id="3.g-3_fr_vcd4ufs31p8v-fill" stroke="none" fill="#e9ffb9"><g></g></g></g><g id="g-root-1.g-1_1_fr_dbq01zs3330r-fill" data-item-order="-332589" transform="translate(136, 98)"></g><g id="g-root-3.g-3_1_fr_1haq093s333lx-fill" data-item-order="-332579" transform="translate(448, 50)"></g><g id="g-root-2.g-2_1_fr_13zvyyvs33213-fill" data-item-order="-332569" transform="translate(268, 386)"></g><g id="g-root-tx_deployse_18lbu13s2rwg8-fill" data-item-order="0" transform="translate(460, 50)"><g id="tx_deployse_18lbu13s2rwg8-fill" stroke="none" fill="#484848"><g><text style="font: bold 20px &quot;Shantell Sans&quot;, cursive; white-space: pre;" font-weight="bold" font-size="20px" font-family="'Shantell Sans', cursive"><tspan x="12" y="35" dominant-baseline="ideographic">Deploy Secure </tspan><tspan x="12" y="59" dominant-baseline="ideographic">Web Gateway</tspan></text></g></g></g><g id="g-root-tx_logintop_18k2vuvs2rua6-fill" data-item-order="0" transform="translate(148, 98)"><g id="tx_logintop_18k2vuvs2rua6-fill" stroke="none" fill="#484848"><g><text style="font: bold 20px &quot;Shantell Sans&quot;, cursive; white-space: pre;" font-weight="bold" font-size="20px" font-family="'Shantell Sans', cursive"><tspan x="12" y="35" dominant-baseline="ideographic">Log in to Portal</tspan></text></g></g></g><g id="g-root-tx_systemin_dju9c7s2ru2p-fill" data-item-order="0" transform="translate(460, 110)"><g id="tx_systemin_dju9c7s2ru2p-fill" stroke="none" fill="#484848"><g><text style="font: 15px &quot;Shantell Sans&quot;, cursive; white-space: pre;" font-size="15px" font-family="'Shantell Sans', cursive"><tspan x="12" y="32" dominant-baseline="ideographic">System initiates </tspan><tspan x="12" y="50" dominant-baseline="ideographic">deployment within 15 </tspan><tspan x="12" y="68" dominant-baseline="ideographic">minutes</tspan></text></g></g></g><g id="g-root-tx_useracce_dhyu2vs2rv2f-fill" data-item-order="0" transform="translate(148, 134)"><g id="tx_useracce_dhyu2vs2rv2f-fill" stroke="none" fill="#484848"><g><text style="font: 15px &quot;Shantell Sans&quot;, cursive; white-space: pre;" font-size="15px" font-family="'Shantell Sans', cursive"><tspan x="12" y="29" dominant-baseline="ideographic">User accesses the </tspan><tspan x="12" y="47" dominant-baseline="ideographic">SafeSquid portal</tspan></text></g></g></g><g id="g-root-logo_1hclfifs332ma-fill" data-item-order="0" transform="translate(88, 255)"></g><g id="g-root-chec_1cua11js38p38-fill" data-item-order="0" transform="translate(243.75201416015625, 255)"></g><g id="g-root-func_1hegurrs3bhn1-fill" data-item-order="0" transform="translate(400, 255)"></g><g id="g-root-tx_choosede_1lynrnrs2rtvm-fill" data-item-order="0" transform="translate(64, 422)"><g id="tx_choosede_1lynrnrs2rtvm-fill" stroke="none" fill="#484848"><g><text style="font: bold 20px &quot;Shantell Sans&quot;, cursive; white-space: pre;" font-weight="bold" font-size="20px" font-family="'Shantell Sans', cursive"><tspan x="126.18" y="35" dominant-baseline="ideographic">Choose </tspan><tspan x="23.45" y="59" dominant-baseline="ideographic">Deployment Type</tspan></text></g></g></g><g id="g-root-tx_usersele_zrk91js2rw97-fill" data-item-order="0" transform="translate(64, 482)"><g id="tx_usersele_zrk91js2rw97-fill" stroke="none" fill="#484848"><g><text style="font: 15px &quot;Shantell Sans&quot;, cursive; white-space: pre;" font-size="15px" font-family="'Shantell Sans', cursive"><tspan x="18" y="29" dominant-baseline="ideographic">User selects on-premises, </tspan><tspan x="35.87" y="47" dominant-baseline="ideographic">off-premises, or hybrid</tspan></text></g></g></g><g id="g-root-0.g-0_fr_1hhl87bs31nut-stroke" data-item-order="-332630" transform="translate(4, 217)"><g id="0.g-0_fr_1hhl87bs31nut-stroke" fill="none" stroke-linecap="round" stroke-linejoin="round" stroke-miterlimit="4" stroke="#484848" stroke-width="4"><g><path d="M 496 130.5C 513.8 131.3 531.7 130.5 549.5 130.5C 549 138.5 549.8 146.5 549.5 154.5C 562.9 143.2 574 129.3 586.8 117.2C 598.7 105.9 609.1 93.2 621.5 82.5C 609 70.6 598 57 584.9 45.7C 572.2 34.8 560.3 22.8 549.5 10C 550.4 18.1 550.6 26.4 549.5 34.5C 536 34.1 522.5 33 509.1 34.5C 503.7 66.3 501.5 98.7 496 130.5M 389.1 34.5C 377.2 35.6 365.1 35.2 353.1 34.5C 349.1 66.5 344.3 98.5 340.1 130.5C 352 132 364.1 131.5 376 130.5C 379.3 98.4 383.3 66.3 389.1 34.5M 233.1 34.5C 221.3 33.4 209.3 36.3 197.6 34.5C 195.9 50.2 192.1 65.6 191.2 81.4C 190.3 97.9 187.1 114.2 184.5 130.5C 196.4 130 208.2 130.3 220.1 130.5C 222.7 98.3 228.3 66.4 233.1 34.5M 77.6 34.5C 55.1 34.7 32.5 35.4 10 34.5C 8.2 48.8 9.3 63.3 10 77.7C 10.9 95.3 9.7 112.9 10 130.5C 28.2 129.7 46.4 132 64.5 130.5C 65.4 113.7 70.6 97.3 71.3 80.5C 72 65 75.3 49.8 77.6 34.5"></path><path d="M 496 130.5L 549.4684 130.5L 549.4684 154.5L 621.4749 82.5026L 549.4684 10L 549.4684 34.5L 509.0667 34.5L 496 130.5ZM 389.1033 34.5L 353.1337 34.5L 340.067 130.5L 376.0366 130.5L 389.1033 34.5ZM 233.1337 34.5L 197.5983 34.5L 184.5316 130.5L 220.067 130.5L 233.1337 34.5ZM 77.5983 34.5L 10 34.5L 10 130.5L 64.5316 130.5L 77.5983 34.5Z"></path></g></g></g><g id="g-root-1.g-1_fr_dju66fs31pfr-stroke" data-item-order="-332626" transform="translate(28, 206)"><g id="1.g-1_fr_dju66fs31pfr-stroke" fill="none" stroke-linecap="round" stroke-linejoin="round" stroke-miterlimit="4" stroke="#484848" stroke-width="4"><g><path d="M 58.5 10C 79.4 10.9 100.4 9 121.4 10C 140.4 10.9 159.5 10.2 178.5 10C 175 30.8 172.7 51.8 170 72.7C 167.2 93.7 164.4 114.6 161.4 135.5C 158.9 153.7 158 172.1 154 190C 134.5 190.1 114.9 188.2 95.5 190C 75.1 191.9 54.5 190.9 34 190C 37 169.7 40.1 149.3 42.3 128.9C 44.6 108.3 47.6 87.8 50.7 67.4C 53.5 48.3 56 29.1 58.5 10"></path><path d="M 58.5 10L 178.5 10L 154 190L 34 190L 58.5 10Z"></path></g></g><g id="1.g-1_fr_dju66fs31pfr-stroke" fill="none" stroke-linecap="round" stroke-linejoin="round" stroke-miterlimit="4" stroke="#484848" stroke-width="4"><g><path d="M 178.5 10C 176 21.8 176.2 34.2 173.6 46C 183.1 45.9 192.5 46.2 202 46C 194.2 34 185.7 22.4 178.5 10"></path><path d="M 178.500081 10L 173.595581 46L 202.000081 46L 178.500081 10Z"></path></g></g><g id="1.g-1_fr_dju66fs31pfr-stroke" fill="none" stroke-linecap="round" stroke-linejoin="round" stroke-miterlimit="4" stroke="#484848" stroke-width="4"><g><path d="M 10 142C 17.2 158.4 26.9 173.6 34 190C 36.1 174 38.5 158 40.5 142C 30.3 141.9 20.1 142.7 10 142"></path><path d="M 10 142L 34 190L 40.5 142L 10 142Z"></path></g></g></g><g id="g-root-2.g-2_fr_1hiu6djs31q0z-stroke" data-item-order="-332618" transform="translate(183.53500366210938, 206)"><g id="2.g-2_fr_1hiu6djs31q0z-stroke" fill="none" stroke-linecap="round" stroke-linejoin="round" stroke-miterlimit="4" stroke="#484848" stroke-width="4"><g><path d="M 58.5 10C 72.6 9.8 86.8 9 100.9 10C 112.7 10.9 124.5 9.1 136.2 10C 150.3 11.1 164.4 10.2 178.5 10C 174.3 31 171.8 52.3 169.8 73.7C 168 94 165.3 114.3 161.6 134.4C 158.2 152.8 154.6 171.3 154 190C 141.3 190 128.4 191.8 115.8 190C 102.9 188.2 89.6 190.2 76.5 190C 62.4 189.8 48.1 188.8 34 190C 36 173.8 38 157.5 40.6 141.4C 43.2 125.9 46.1 110.3 47 94.6C 47.8 80.6 51.7 66.9 52.7 53C 53.6 38.5 58.5 24.4 58.5 10"></path><path d="M 58.5 10L 178.5 10L 154 190L 34 190L 58.5 10Z"></path></g></g><g id="2.g-2_fr_1hiu6djs31q0z-stroke" fill="none" stroke-linecap="round" stroke-linejoin="round" stroke-miterlimit="4" stroke="#484848" stroke-width="4"><g><path d="M 178.5 10C 177.1 22 176.1 34.1 173.6 46C 183.1 45.9 192.6 45.1 202 46C 195.3 33.3 187.1 21.4 178.5 10"></path><path d="M 178.500081 10L 173.595581 46L 202.000081 46L 178.500081 10Z"></path></g></g><g id="2.g-2_fr_1hiu6djs31q0z-stroke" fill="none" stroke-linecap="round" stroke-linejoin="round" stroke-miterlimit="4" stroke="#484848" stroke-width="4"><g><path d="M 10 142C 18.2 157.9 27.1 173.5 34 190C 35.9 174 37.5 157.9 40.5 142C 30.4 140.6 20.1 141 10 142"></path><path d="M 10 142L 34 190L 40.5 142L 10 142Z"></path></g></g></g><g id="g-root-3.g-3_fr_vcd4ufs31p8v-stroke" data-item-order="-332610" transform="translate(339.50396728515625, 206)"><g id="3.g-3_fr_vcd4ufs31p8v-stroke" fill="none" stroke-linecap="round" stroke-linejoin="round" stroke-miterlimit="4" stroke="#484848" stroke-width="4"><g><path d="M 58.5 10C 79.8 10.9 101.2 8.7 122.4 10C 141.1 11.1 159.9 8.7 178.5 10C 174.8 25.5 173.9 41.5 172 57.4C 170.3 72.6 168.7 87.8 165.9 102.8C 162.9 118.1 161.5 133.8 159.5 149.3C 157.8 162.9 155.9 176.4 154 190C 141 191.8 127.8 189.9 114.7 190C 100 190.2 85.3 188.8 70.7 190C 58.5 191 46.2 190 34 190C 37.8 157.9 41.5 125.8 47.1 94C 52 66.1 55.7 38.1 58.5 10"></path><path d="M 58.5 10L 178.5 10L 154 190L 34 190L 58.5 10Z"></path></g></g><g id="3.g-3_fr_vcd4ufs31p8v-stroke" fill="none" stroke-linecap="round" stroke-linejoin="round" stroke-miterlimit="4" stroke="#484848" stroke-width="4"><g><path d="M 178.5 10C 176.4 21.9 176.5 34.3 173.6 46C 183.1 45.6 192.6 44.7 202 46C 194.9 33.6 184.9 22.8 178.5 10"></path><path d="M 178.500081 10L 173.595581 46L 202.000081 46L 178.500081 10Z"></path></g></g><g id="3.g-3_fr_vcd4ufs31p8v-stroke" fill="none" stroke-linecap="round" stroke-linejoin="round" stroke-miterlimit="4" stroke="#484848" stroke-width="4"><g><path d="M 10 142C 17.3 158.3 27.2 173.5 34 190C 35.8 174 37 157.8 40.5 142C 30.4 141.2 20 143.6 10 142"></path><path d="M 10 142L 34 190L 40.5 142L 10 142Z"></path></g></g></g><g id="g-root-1.g-1_1_fr_dbq01zs3330r-stroke" data-item-order="-332589" transform="translate(136, 98)"><g id="1.g-1_1_fr_dbq01zs3330r-stroke" fill="none" stroke-linecap="round" stroke-linejoin="round" stroke-miterlimit="4" stroke="#484848" stroke-width="2"><g><path d="M 10 10C 9.9 27.8 9.7 45.5 10 63.3C 10.3 81.5 8.3 99.8 10 118"></path><path d="M 10 10L 10 118"></path></g></g></g><g id="g-root-3.g-3_1_fr_1haq093s333lx-stroke" data-item-order="-332579" transform="translate(448, 50)"><g id="3.g-3_1_fr_1haq093s333lx-stroke" fill="none" stroke-linecap="round" stroke-linejoin="round" stroke-miterlimit="4" stroke="#484848" stroke-width="2"><g><path d="M 10 10C 8.8 34.5 8.9 59.1 10 83.6C 11.3 111.1 10.9 138.6 10 166"></path><path d="M 10 10L 10 166"></path></g></g></g><g id="g-root-2.g-2_1_fr_13zvyyvs33213-stroke" data-item-order="-332569" transform="translate(268, 386)"><g id="2.g-2_1_fr_13zvyyvs33213-stroke" fill="none" stroke-linecap="round" stroke-linejoin="round" stroke-miterlimit="4" stroke="#484848" stroke-width="2"><g><path d="M 10 10C 8.1 24 9.5 38.2 10 52.3C 10.5 66.9 9.5 81.5 10 96.1C 10.5 111.4 9.4 126.7 10 142"></path><path d="M 10 10L 10 142"></path></g></g></g><g id="g-root-tx_deployse_18lbu13s2rwg8-stroke" data-item-order="0" transform="translate(460, 50)"></g><g id="g-root-tx_logintop_18k2vuvs2rua6-stroke" data-item-order="0" transform="translate(148, 98)"></g><g id="g-root-tx_systemin_dju9c7s2ru2p-stroke" data-item-order="0" transform="translate(460, 110)"></g><g id="g-root-tx_useracce_dhyu2vs2rv2f-stroke" data-item-order="0" transform="translate(148, 134)"></g><g id="g-root-logo_1hclfifs332ma-stroke" data-item-order="0" transform="translate(88, 255)"><g id="logo_1hclfifs332ma-stroke" fill="none" stroke-linecap="round" stroke-linejoin="round" stroke-miterlimit="4" stroke="#484848" stroke-width="2"><g><path d="M 32.5 80.5C 31 74.800003 32.799999 68.5 34 62.5C 36.400002 62.800003 39.099998 61.600002 41.5 62.5C 42.099998 59.199997 40.599998 55.300003 41.5 52C 43.599998 43.900002 34.900002 37.599998 26.5 37C 18.1 36.400002 12.7 43.900002 11.5 52C 10.9 55.599998 11.8 58.899998 11.5 62.5C 13.9 62.5 16.6 62.199997 19 62.5C 19.299999 68.5 20.5 74.5 20.5 80.5C 24.400002 80.5 28.599998 80.199997 32.5 80.5M 16 22C 14.8 27.700001 20.799999 32.799999 26.5 32.5C 32.200001 32.200001 38.5 27.700001 37 22C 35.5 16.299999 32.200001 11.5 26.5 11.5C 20.799999 11.5 16 16.299999 16 22M 71.5 44.5C 74.800003 41.800003 78.699997 39.400002 80.5 35.5C 78.399994 31.900002 74.800003 29.200001 71.5 26.5M 50.5 35.5C 60.399998 33.700001 70.600006 34.300003 80.5 35.5M 32.5 80.5L 34 62.5L 41.5 62.5L 41.5 52C 41.5 43.715729 34.784271 37 26.5 37C 18.215729 37 11.5 43.715729 11.5 52L 11.5 62.5L 19 62.5L 20.5 80.5ZM 16 22C 16 27.79899 20.701012 32.5 26.500002 32.5C 32.298988 32.5 37 27.79899 37 22C 37 16.20101 32.298988 11.500001 26.500002 11.500001C 20.701012 11.500001 16 16.20101 16 22ZM 71.5 44.5L 80.5 35.5L 71.5 26.5M 50.5 35.5L 80.5 35.5"></path></g></g></g><g id="g-root-chec_1cua11js38p38-stroke" data-item-order="0" transform="translate(243.75201416015625, 255)"><g id="chec_1cua11js38p38-stroke" fill="none" stroke-linecap="round" stroke-linejoin="round" stroke-miterlimit="4" stroke="#484848" stroke-width="2"><g><path d="M 64 31.599998C 52 30.400002 39.699997 29.200001 28 31.599998C 26.200001 47.5 23.5 64.300003 28 79.600006C 39.699997 76.899994 52.300003 76.899994 64 79.600006C 60.399998 64 67.300003 47.199997 64 31.599998M 70 48.400002C 73 49.300003 76.300003 49 79.600006 48.400002M 70 60.399998C 73 59.199997 76.300003 59.800003 79.600006 60.399998M 70 72.399994C 71.800003 73.300003 74.199997 71.800003 76.600006 72.399994C 78.100006 72.699997 79.300003 71.199997 79.600006 69.399994C 80.5 59.5 81.699997 49.300003 79.600006 39.400002C 79 37.599998 78.399994 36.400002 76.600006 36.400002C 74.199997 36.400002 72.100006 37 70 36.400002M 29.5 47.5C 40.900002 47.5 52.599998 50.199997 64 47.5M 29.5 64C 40.900002 62.800003 52.599998 62.5 64 64M 21.700001 48.400002C 18.700001 47.800003 15.4 47.800003 12.4 48.400002M 21.700001 60.399998C 18.700001 60.399998 15.4 61 12.4 60.399998M 22 72.399994C 19.6 73 17.200001 71.800003 15.4 72.399994C 13.6 73 12.7 71.199997 12.4 69.399994C 9.1 59.800003 13 49.300003 12.4 39.400002C 12.1 37.599998 13.6 36.699997 15.4 36.400002C 17.5 36.099998 19.6 36.099998 22 36.400002M 10 10M 41.5 15.4C 42.699997 16.9 44.199997 18.4 46 19.6C 48.099998 16.9 50.5 14.5 53.5 12.4M 63.850002 31.60021L 27.850029 31.60021L 27.850029 79.600296L 63.850002 79.600296L 63.850002 31.60021ZM 69.850006 48.3997L 79.449997 48.3997M 69.850006 60.3997L 79.449997 60.3997M 69.850006 72.399704L 76.449997 72.399704C 78.25 72.399704 79.449997 71.199699 79.449997 69.399704L 79.449997 39.399788C 79.449997 37.599792 78.25 36.399788 76.449997 36.399788L 69.850006 36.399788M 29.350029 47.499699L 63.850002 47.499699M 29.350029 63.999702L 63.850002 63.999702M 21.84997 48.3997L 12.25 48.3997M 21.84997 60.3997L 12.25 60.3997M 21.85 72.399704L 15.25 72.399704C 13.45 72.399704 12.25 71.199699 12.25 69.399704L 12.25 39.399788C 12.25 37.599792 13.45 36.399788 15.25 36.399788L 21.85 36.399788M 10 10M 41.349998 15.39979L 45.849998 19.59976L 53.349998 12.399781"></path></g></g></g><g id="g-root-func_1hegurrs3bhn1-stroke" data-item-order="0" transform="translate(400, 255)"><g id="func_1hegurrs3bhn1-stroke" fill="none" stroke-linecap="round" stroke-linejoin="round" stroke-miterlimit="4" stroke="#484848" stroke-width="2"><g><path d="M 36.400002 32.799999C 38.199997 32.799999 39.099998 33.700001 39.400002 35.800003C 39.400002 36.699997 39.400002 37.599998 39.400002 38.800003C 39.099998 40.300003 38.199997 41.5 36.400002 41.5C 29.200001 41.800003 22 43.900002 15.4 41.5C 13.6 41.199997 13 40.300003 12.4 38.800003C 11.8 37.599998 12.4 36.699997 12.4 35.800003C 12.4 34 13.6 32.799999 15.4 32.799999C 22.299999 31.599998 29.5 30.700001 36.400002 32.799999M 76.600006 38.800003C 78.399994 38.199997 80.199997 40 79.600006 41.800003C 79.300003 44.5 79 47.800003 79.600006 50.800003C 80.199997 52.300003 78.399994 53.199997 76.600006 53.800003C 70.300003 55.900002 62.199997 51.099998 55.599998 53.800003C 54.099998 54.400002 52.599998 52.300003 52.599998 50.800003C 52.900002 47.800003 51.699997 44.5 52.599998 41.800003C 53.5 40 54.099998 39.400002 55.599998 38.800003C 62.199997 36.099998 70 40.599998 76.600006 38.800003M 36.400002 50.800003C 37.900002 50.199997 39.699997 52 39.400002 53.800003C 39.099998 54.699997 39.400002 55.599998 39.400002 56.800003C 39.099998 58.300003 37.900002 60.100002 36.400002 59.800003C 29.5 58.300003 22 58 15.4 59.800003C 13.6 60.100002 12.7 58.300003 12.4 56.800003C 12.1 55.599998 12.1 54.699997 12.4 53.800003C 12.7 52 13.6 51.400002 15.4 50.800003C 21.700001 48.099998 29.799999 48.400002 36.400002 50.800003M 25.900002 59.800003C 25.299999 61.600002 25 63.699997 25.900002 65.800003C 26.5 67.300003 27.099998 68.5 28.900002 68.800003C 40 70.300003 51.699997 67.899994 63.399998 68.800003C 64.899994 68.800003 66.100006 67.300003 66.399994 65.800003C 66.699997 61.600002 67.300003 57.400002 66.399994 53.800003M 25.900002 50.800003C 26.5 47.800003 25.599998 44.800003 25.900002 41.800003M 25.900002 32.799999C 25.900002 30.700001 25 28.599998 25.900002 26.799999C 26.5 25 27.099998 23.799999 28.900002 23.799999C 40.300003 23.799999 52 21.4 63.399998 23.799999C 64.899994 24.099998 65.800003 25 66.399994 26.799999C 67 30.700001 65.800003 34.599998 66.399994 38.800003M 45.400002 23.799999C 48.400002 23.5 49.900002 20.799999 51.099998 18.1C 52 15.1 48.400002 13 45.400002 12.1C 42.099998 11.5 38.5 14.8 39.699997 18.1C 40.599998 20.799999 42.099998 22.900002 45.400002 23.799999M 45.400002 79.899994C 48.400002 80.199997 50.5 77.199997 50.800003 74.199997C 51.099998 71.199997 48.099998 67.600006 45.400002 68.5C 42.400002 69.699997 38.800003 71.199997 39.699997 74.199997C 40.599998 77.199997 42.400002 78.699997 45.400002 79.899994M 36.250179 32.65015C 38.050182 32.65015 39.250179 33.850151 39.250179 35.65015L 39.250179 38.65015C 39.250179 40.449997 38.050182 41.650002 36.250179 41.650002L 15.25018 41.650002C 13.45018 41.650002 12.250183 40.449997 12.250183 38.65015L 12.250183 35.65015C 12.250183 33.850151 13.45018 32.65015 15.25018 32.65015L 36.250179 32.65015ZM 76.749702 38.65015C 78.549698 38.65015 79.749702 39.850151 79.749702 41.650002L 79.749702 50.650002C 79.749702 52.449997 78.549698 53.650002 76.749702 53.650002L 55.749699 53.650002C 53.949699 53.650002 52.749699 52.449997 52.749699 50.650002L 52.749699 41.650002C 52.749699 39.850151 53.949699 38.65015 55.749699 38.65015L 76.749702 38.65015ZM 36.250179 50.650002C 38.050182 50.650002 39.250179 51.849998 39.250179 53.650002L 39.250179 56.650002C 39.250179 58.449997 38.050182 59.649998 36.250179 59.649998L 15.25018 59.649998C 13.45018 59.649998 12.250183 58.449997 12.250183 56.650002L 12.250183 53.650002C 12.250183 51.849998 13.45018 50.650002 15.25018 50.650002L 36.250179 50.650002ZM 25.750179 59.649998L 25.750179 65.649994C 25.750179 67.449997 26.95018 68.649994 28.750179 68.649994L 63.250298 68.649994C 65.050301 68.649994 66.250298 67.449997 66.250298 65.649994L 66.250298 53.650002M 25.750179 50.650002L 25.750179 41.650002M 25.750179 32.65015L 25.750179 26.65015C 25.750179 24.850149 26.95018 23.65015 28.750179 23.65015L 63.250298 23.65015C 65.050301 23.65015 66.250298 24.850149 66.250298 26.65015L 66.250298 38.65015M 45.250301 23.65015C 48.398201 23.65015 50.950298 21.098141 50.950298 17.95006C 50.950298 14.80201 48.398201 12.25 45.250301 12.25C 42.1021 12.25 39.550121 14.80201 39.550121 17.95006C 39.550121 21.098141 42.1021 23.65015 45.250301 23.65015ZM 45.250301 79.75C 48.315399 79.75 50.800003 77.265099 50.800003 74.199997C 50.800003 71.134903 48.315399 68.649994 45.250301 68.649994C 42.184898 68.649994 39.700272 71.134903 39.700272 74.199997C 39.700272 77.265099 42.184898 79.75 45.250301 79.75Z"></path></g></g></g><g id="g-root-tx_choosede_1lynrnrs2rtvm-stroke" data-item-order="0" transform="translate(64, 422)"></g><g id="g-root-tx_usersele_zrk91js2rw97-stroke" data-item-order="0" transform="translate(64, 482)"></g></g></g></svg>