<?xml version="1.0" encoding="utf-8" standalone="yes"?>
<!DOCTYPE svg PUBLIC "-//W3C//DTD SVG 1.1//EN" "http://www.w3.org/Graphics/SVG/1.1/DTD/svg11.dtd">
<svg width="588" height="441" viewBox="0 0 588 441" style="fill:none;stroke:none;fill-rule:evenodd;clip-rule:evenodd;stroke-linecap:round;stroke-linejoin:round;stroke-miterlimit:1.5;" version="1.1" xmlns="http://www.w3.org/2000/svg" xmlns:xlink="http://www.w3.org/1999/xlink"><style class="text-font-style fontImports" data-font-family="Shantell Sans">@import url('https://fonts.googleapis.com/css2?family=Shantell+Sans:wght@300..800&amp;display=block');</style><g id="items" style="isolation: isolate"><g id="blend" style="mix-blend-mode: normal"><g id="g-root-5.cu_sy_1cz9tqfsx4pog-fill" data-item-order="-82622" transform="translate(219.94580078125, 243.99853515625)"><g id="5.cu_sy_1cz9tqfsx4pog-fill" stroke="none" fill="#ffe4cb"><g><path d="M 152.154169 60.099969L 147.754169 55.199969L 125.554169 60.499969L 137.254169 73.499969ZM 125.554169 60.499969L 115.054169 98.199969L 135.654169 98.699969L 147.754169 55.199969ZM 135.654169 98.699969L 116.954169 15.999969L 96.754169 17.399969L 115.054169 98.199969ZM 96.754169 17.399969L 90.554169 88.099969L 110.754169 86.399969L 116.954169 15.999969ZM 110.754169 86.399969L 93.854169 20.799969L 73.954169 23.899969L 90.554169 88.099969ZM 73.954169 23.899969L 78.654169 108.899969L 98.454169 106.099969L 93.854169 20.799969ZM 98.454169 106.099969L 79.254169 19.599969L 58.754169 19.699969L 78.654169 108.899969ZM 58.754169 19.699969L 45.354169 82.299969L 65.654169 83.299969L 79.254169 19.599969ZM 65.654169 83.299969L 59.054169 23.799969L 38.754169 22.999969L 45.354169 82.299969ZM 38.754169 22.999969L 24.854169 95.799969L 45.254169 95.699969L 59.054169 23.799969ZM 45.254169 95.699969L 36.054169 49.499969L 15.854169 50.299969L 24.854169 95.799969ZM 15.854169 50.299969L 9.854169 101.199969L 29.954169 100.999969L 36.054169 49.499969ZM 29.954169 100.999969L 28.654169 91.299969L 8.854169 93.899969L 9.854169 101.199969Z" fill-rule="nonzero"></path></g></g></g><g id="g-root-4.cu_sy_1lw5s5jsx4qa1-fill" data-item-order="-82618" transform="translate(318.00006103515625, 169.11328125)"><g id="4.cu_sy_1lw5s5jsx4qa1-fill" stroke="none" fill="#fff8b6"><g><path d="M 69.599939 151.185376L 78.799939 152.885376L 85.799939 133.885376L 73.199939 131.485376ZM 85.799939 133.885376L 45.799939 110.485376L 39.099939 129.685376L 78.799939 152.885376ZM 39.099939 129.685376L 77.799939 135.285376L 84.099939 115.985376L 45.799939 110.485376ZM 84.099939 115.985376L 23.399939 83.985376L 18.199939 103.785376L 77.799939 135.285376ZM 18.199939 103.785376L 86.399939 106.185376L 89.999939 86.285376L 23.399939 83.985376ZM 89.999939 86.285376L 27.399939 65.285376L 23.499939 85.085376L 86.399939 106.185376ZM 23.499939 85.085376L 115.899939 90.985376L 119.999939 71.185376L 27.399939 65.285376ZM 119.999939 71.185376L 30.999939 38.885376L 25.599939 58.185376L 115.899939 90.985376ZM 25.599939 58.185376L 93.399939 70.985376L 98.999939 51.685376L 30.999939 38.885376ZM 98.999939 51.685376L 35.499939 26.785376L 30.899939 46.485376L 93.399939 70.985376ZM 30.899939 46.485376L 111.999939 53.585376L 119.799939 34.185376L 35.499939 26.785376ZM 119.799939 34.185376L 87.299939 8.185376L 80.699939 28.485376L 111.999939 53.585376ZM 80.699939 28.485376L 100.899939 27.685376L 100.099939 7.685376L 87.299939 8.185376Z" fill-rule="nonzero"></path></g></g></g><g id="g-root-3.cu_sy_hz177rsx4op6-fill" data-item-order="-82614" transform="translate(146, 169.11376953125)"><g id="3.cu_sy_hz177rsx4op6-fill" stroke="none" fill="#e9ffb9"><g><path d="M 48.4 154.284888L 64.4 152.584888L 71.4 131.784888L 46.3 134.384888ZM 71.4 131.784888L 54.1 115.284888L 47.7 136.784888L 64.4 152.584888ZM 47.7 136.784888L 96.4 127.984888L 97.3 107.484888L 54.1 115.284888ZM 97.3 107.484888L 48.9 94.284888L 47 114.484888L 96.4 127.984888ZM 47 114.484888L 111.9 109.584888L 112.6 89.484888L 48.9 94.284888ZM 112.6 89.484888L 16.8 75.484888L 16.5 95.684888L 111.9 109.584888ZM 16.5 95.684888L 116.2 83.984888L 117.1 63.784888L 16.8 75.484888ZM 117.1 63.784888L 36.6 46.884888L 34.4 66.884888L 116.2 83.984888ZM 34.4 66.884888L 105.6 67.784888L 107.7 47.784888L 36.6 46.884888ZM 107.7 47.784888L 23.3 30.884888L 22 50.984888L 105.6 67.784888ZM 22 50.984888L 104.5 45.484888L 105.7 25.384888L 23.3 30.884888ZM 105.7 25.384888L 37.9 12.284888L 36.6 32.484888L 104.5 45.484888ZM 36.6 32.484888L 50.6 31.584888L 49.4 11.584888L 37.9 12.284888Z" fill-rule="nonzero"></path></g></g></g><g id="g-root-2.cu_sy_1d2e75zsx4q2z-fill" data-item-order="-82610" transform="translate(289.880859375, 62.99853515625)"><g id="2.cu_sy_1d2e75zsx4q2z-fill" stroke="none" fill="#c8ffe5"><g><path d="M 25.21911 10.5L 26.51911 9.9L 36.71911 32.6L 50.11911 39.9L 45.51911 15.9L 44.61911 15.5L 44.31911 16.4ZM 45.51911 15.9L 10.11911 52.7L 20.41911 70.8L 50.11911 39.9ZM 20.41911 70.8L 65.31911 60.2L 57.31911 41.5L 10.11911 52.7ZM 57.31911 41.5L 5.01911 75.3L 14.41911 93.1L 65.31911 60.2ZM 14.41911 93.1L 99.41911 57L 88.71911 39.8L 5.01911 75.3ZM 88.71911 39.8L 21.61911 98.7L 32.31911 116L 99.41911 57ZM 32.31911 116L 104.41911 86.5L 94.31911 69L 21.61911 98.7ZM 94.31911 69L 41.51911 110L 52.61911 126.7L 104.41911 86.5ZM 52.61911 126.7L 126.31911 84.7L 114.51911 68.4L 41.51911 110ZM 114.51911 68.4L 49.51911 127L 60.41911 144.1L 126.31911 84.7ZM 60.41911 144.1L 126.41911 115.9L 112.41911 100.1L 49.51911 127ZM 112.41911 100.1L 104.81911 113.3L 122.21911 123.3L 126.41911 115.9Z" fill-rule="nonzero"></path></g></g></g><g id="g-root-1.cu_sy_i0wmh3sx4npg-fill" data-item-order="-82606" transform="translate(159.68475341796875, 62.99853515625)"><g id="1.cu_sy_i0wmh3sx4npg-fill" stroke="none" fill="#d1f4ff"><g><path d="M 24.715262 122.1L 26.715262 123.1L 44.715262 109.1L 32.715262 103.8ZM 44.715262 109.1L 39.415262 76.5L 20.915262 87.2L 26.715262 123.1ZM 20.915262 87.2L 82.515262 137.7L 98.215262 124.6L 39.415262 76.5ZM 98.215262 124.6L 64.815262 64.7L 48.915262 77.3L 82.515262 137.7ZM 48.915262 77.3L 100.715262 124.9L 115.615262 111.5L 64.815262 64.7ZM 115.615262 111.5L 59.215262 36.4L 44.615262 50.2L 100.715262 124.9ZM 44.615262 50.2L 123.115262 116.3L 138.615262 103.2L 59.215262 36.4ZM 138.615262 103.2L 100.915262 38.5L 84.815262 50.7L 123.115262 116.3ZM 84.815262 50.7L 125.715262 93.3L 142.415262 81.8L 100.915262 38.5ZM 142.415262 81.8L 114.315262 23.9L 98.115262 36.2L 125.715262 93.3ZM 98.115262 36.2L 131.415262 65.8L 147.415262 53.3L 114.315262 23.9ZM 147.415262 53.3L 124.015262 8.7L 105.715262 17.1L 131.415262 65.8ZM 105.715262 17.1L 110.015262 27.9L 128.615262 20.5L 124.015262 8.7Z" fill-rule="nonzero"></path></g></g></g><g id="g-root-tx_iamsyste_dkgqfbsx7h8t-fill" data-item-order="0" transform="translate(62, 37.99853515625)"><g id="tx_iamsyste_dkgqfbsx7h8t-fill" stroke="none" fill="#484848"><g><text style="font: 20px &quot;Shantell Sans&quot;, cursive; white-space: pre;" font-size="20px" font-family="'Shantell Sans', cursive"><tspan x="11.57" y="35" dominant-baseline="ideographic">IAM Systems</tspan></text></g></g></g><g id="g-root-tx_icapserv_v64h53sx8wsh-fill" data-item-order="0" transform="translate(386, 37.99853515625)"><g id="tx_icapserv_v64h53sx8wsh-fill" stroke="none" fill="#484848"><g><text style="font: 20px &quot;Shantell Sans&quot;, cursive; white-space: pre;" font-size="20px" font-family="'Shantell Sans', cursive"><tspan x="12" y="35" dominant-baseline="ideographic">ICAP Servers</tspan></text></g></g></g><g id="g-root-book_dcch53sx64ge-fill" data-item-order="0" transform="translate(224, 115.99853515625)"></g><g id="g-root-mesh_1hgyu9zsx39cd-fill" data-item-order="0" transform="translate(320, 115.99853515625)"></g><g id="g-root-lock_1luacw7sxa9l9-fill" data-item-order="0" transform="translate(194, 211.99853515625)"></g><g id="g-root-lock_v491vrsx0gzm-fill" data-item-order="0" transform="translate(350, 211.99853515625)"></g><g id="g-root-tx_dlpsyste_v303pjsx8vm6-fill" data-item-order="0" transform="translate(-10, 241.99853515625)"><g id="tx_dlpsyste_v303pjsx8vm6-fill" stroke="none" fill="#484848"><g><text style="font: 20px &quot;Shantell Sans&quot;, cursive; white-space: pre;" font-size="20px" font-family="'Shantell Sans', cursive"><tspan x="20.38" y="35" dominant-baseline="ideographic">DLP Systems</tspan></text></g></g></g><g id="g-root-tx_siems_ddlih3sx8wzk-fill" data-item-order="0" transform="translate(458, 241.99853515625)"><g id="tx_siems_ddlih3sx8wzk-fill" stroke="none" fill="#484848"><g><text style="font: 20px &quot;Shantell Sans&quot;, cursive; white-space: pre;" font-size="20px" font-family="'Shantell Sans', cursive"><tspan x="12" y="35" dominant-baseline="ideographic">SIEMs</tspan></text></g></g></g><g id="g-root-1_dkgqfbsww9on-fill" data-item-order="0" transform="translate(272, 271.99853515625)"></g><g id="g-root-tx_socthrea_1lqjljbsx8xs7-fill" data-item-order="0" transform="translate(224, 373.99853515625)"><g id="tx_socthrea_1lqjljbsx8xs7-fill" stroke="none" fill="#484848"><g><text style="font: 20px &quot;Shantell Sans&quot;, cursive; white-space: pre;" font-size="20px" font-family="'Shantell Sans', cursive"><tspan x="22" y="35" dominant-baseline="ideographic">SoC Threat </tspan><tspan x="17.18" y="59" dominant-baseline="ideographic">Intelligence</tspan></text></g></g></g><g id="g-root-5.cu_sy_1cz9tqfsx4pog-stroke" data-item-order="-82622" transform="translate(219.94580078125, 243.99853515625)"><g id="5.cu_sy_1cz9tqfsx4pog-stroke" fill="none" stroke-linecap="round" stroke-linejoin="round" stroke-miterlimit="4" stroke="#484848" stroke-width="4"><g><path d="M 51.854169 9.999969C 60.154169 14.599969 69.554169 18.399969 80.054169 19.099969C 90.554169 19.799969 99.954169 14.999969 108.254169 9.999969C 122.254169 29.399969 136.954169 48.299969 149.954169 68.299969C 147.454169 70.399969 144.454169 71.999969 141.654169 73.799969C 145.754169 81.299969 145.554169 90.599969 149.054169 98.299969C 142.054169 101.499969 135.154169 105.599969 127.654169 107.899969C 123.454169 100.399969 120.254169 92.199969 114.354169 85.899969C 108.354169 88.699969 101.354169 88.099969 94.854169 89.999969C 93.054169 98.399969 93.054169 106.999969 91.654169 115.499969C 87.854169 115.799969 83.854169 115.499969 79.954169 115.999969C 76.054169 116.499969 72.054169 116.399969 68.254169 115.499969C 65.354169 107.399969 65.654169 98.599969 65.054169 89.999969C 58.354169 89.199969 52.054169 87.099969 45.554169 85.899969C 40.654169 92.899969 36.354169 100.299969 32.254169 107.899969C 24.654169 105.899969 17.754169 101.899969 10.854169 98.299969C 11.554169 89.799969 15.954169 81.999969 18.354169 73.799969C 15.554169 71.899969 10.054169 68.299969 9.954169 68.299969C 17.954169 58.299969 25.954169 48.299969 32.254169 37.299969C 37.754169 27.599969 43.854169 17.899969 51.854169 9.999969M 51.8142 10C 59.5542 15.5 69.4811 19.1285 80.0543 19.1285C 90.6274 19.1285 100.3644 15.712 108.2943 10L 149.9643 68.2767C 147.2745 70.2121 144.4902 72.0531 141.6589 73.7996L 149.0677 98.3457C 142.2724 102.0748 135.0996 105.2847 127.6908 107.8809L 114.3833 85.931C 108.0599 87.8192 101.5477 89.1881 94.894 90.0378L 91.6852 115.4807C 87.8156 115.8111 83.899 116 79.9822 116C 76.0655 116 72.1487 115.8111 68.2792 115.4807L 65.0703 90.0378C 58.3694 89.1881 51.8572 87.8192 45.581 85.931L 32.2735 107.8809C 24.8647 105.2374 17.6919 102.0748 10.8966 98.3457L 18.3054 73.7996C 15.4268 72.1003 10 68.2767 10 68.2767L 51.8142 10Z"></path></g></g></g><g id="g-root-4.cu_sy_1lw5s5jsx4qa1-stroke" data-item-order="-82618" transform="translate(318.00006103515625, 169.11328125)"><g id="4.cu_sy_1lw5s5jsx4qa1-stroke" fill="none" stroke-linecap="round" stroke-linejoin="round" stroke-miterlimit="4" stroke="#484848" stroke-width="4"><g><path d="M 125.899939 43.485376C 124.999939 35.585376 126.499939 27.285376 123.399939 20.185376C 114.899939 19.985376 106.399939 19.885376 97.799939 19.585376C 97.799939 16.285376 96.699939 12.885376 95.199939 9.985376C 72.499939 17.185376 49.499939 23.085376 27.499939 31.985376C 28.999939 36.685376 30.599939 41.585376 29.799939 46.685376C 27.399939 62.285376 21.699939 76.085376 9.999939 85.085376C 16.799939 94.385376 22.999939 103.985376 30.099939 112.985376C 37.799939 122.685376 43.899939 133.685376 51.899939 143.185376C 55.099939 142.185376 57.299939 139.285376 59.699939 136.985376C 66.399939 142.385376 74.599939 145.685376 80.699939 151.585376C 86.599939 146.485376 91.499939 140.285376 96.499939 134.185376C 91.799939 126.985376 84.799939 121.685376 79.699939 114.785376C 83.899939 109.685376 87.099939 103.785376 89.699939 97.585376C 98.099939 98.985376 106.999939 99.085376 114.899939 102.385376C 117.799939 95.185376 120.399939 87.785376 122.099939 80.085376C 114.699939 75.685376 106.499939 72.985376 98.899939 69.185376C 99.999939 62.685376 102.499939 55.985376 100.899939 49.385376C 109.099939 46.785376 117.499939 44.885376 125.899939 43.485376M 125.8563 43.4676C 125.6675 35.5374 124.8653 27.7487 123.4496 20.1489L 97.8257 19.5824C 97.0706 16.3253 96.1741 13.1155 95.1831 10L 27.461 31.9922C 28.97 36.6322 29.8323 41.5388 29.8323 46.6855C 29.8323 62.4988 21.991 76.4722 10 85.1122L 51.9102 143.1624C 54.6 141.1799 57.1954 139.1501 59.6964 136.9787L 80.7429 151.6119C 86.4057 146.2307 91.691 140.4246 96.4571 134.1937L 79.7049 114.7928C 83.4801 109.3644 86.8305 103.6055 89.6618 97.5634L 114.861 102.3782C 117.834 95.2032 120.2407 87.7922 122.081 80.0979L 98.9109 69.1466C 100.1379 62.7268 100.8458 56.1183 100.9402 49.3681L 125.9034 43.5148L 125.8563 43.4676Z"></path></g></g></g><g id="g-root-3.cu_sy_hz177rsx4op6-stroke" data-item-order="-82614" transform="translate(146, 169.11376953125)"><g id="3.cu_sy_hz177rsx4op6-stroke" fill="none" stroke-linecap="round" stroke-linejoin="round" stroke-miterlimit="4" stroke="#484848" stroke-width="4"><g><path d="M 108.5 31.984888C 107.6 36.784888 106.3 41.584888 106.1 46.684888C 105.5 62.484888 113.3 77.484888 126 85.084888C 110.6 103.284888 97.1 123.184888 84 143.084888C 81 141.784888 79.2 138.384888 76.2 136.884888C 69.7 142.484888 61.3 145.684888 55.2 151.584888C 50.1 145.584888 44.3 140.284888 39.4 134.184888C 45.1 127.684888 51.4 121.784888 56.2 114.784888C 52.8 109.084888 49.8 103.184888 46.2 97.484888C 38 99.784888 29.1 99.484888 21 102.284888C 18.9 94.884888 17.3 87.184888 13.8 80.084888C 21.7 76.684888 30.1 74.184888 37 69.084888C 34.7 62.984888 35.8 55.984888 35 49.284888C 26.5 48.384888 18.4 44.984888 10 43.484888C 10.3 35.584888 10.7 27.684888 12.4 20.184888C 20.9 19.784888 29.7 17.884888 38 19.584888C 39.1 16.384888 40.2 13.284888 40.7 9.984888C 63.4 16.984888 86 24.484888 108.5 31.984888M 108.512 31.9937C 106.9761 36.6353 106.1407 41.5702 106.1407 46.6919L 106.1677 46.6653C 106.1677 62.4839 114.009 76.4619 126 85.1047L 83.9932 143.1152C 81.3034 141.1798 78.708 139.1029 76.207 136.9315L 55.1603 151.5647C 49.4504 146.1835 44.2124 140.3774 39.4463 134.1465L 56.1985 114.7456C 52.4233 109.3172 49.0729 103.5583 46.2416 97.5162L 21.0423 102.331C 18.0222 95.2032 15.6155 87.745 13.8223 80.0507L 36.9924 69.0994C 35.8127 62.6796 35.1048 56.0711 34.9632 49.3209L 10 43.4676C 10.1888 35.5374 10.9909 27.7487 12.4066 20.1489L 38.0305 19.5824C 38.7855 16.3253 39.6822 13.1627 40.6732 10L 108.512 31.9937Z"></path></g></g></g><g id="g-root-2.cu_sy_1d2e75zsx4q2z-stroke" data-item-order="-82610" transform="translate(289.880859375, 62.99853515625)"><g id="2.cu_sy_1d2e75zsx4q2z-stroke" fill="none" stroke-linecap="round" stroke-linejoin="round" stroke-miterlimit="4" stroke="#484848" stroke-width="4"><g><path d="M 10.11911 105.7C 19.91911 106.1 28.91911 108.7 36.61911 113.7C 45.51911 119.6 51.11911 129 55.61911 139C 78.61911 132.9 100.91911 124.2 123.31911 116.1C 122.61911 112.9 120.81911 109.9 119.81911 106.8C 125.71911 100.5 132.91911 95.6 140.21911 91.2C 136.41911 84.4 133.21911 77.1 128.51911 70.9C 120.31911 73.4 113.11911 78.7 104.81911 80.9C 100.71911 75.7 95.61911 71.3 91.51911 66.1C 96.21911 58.9 99.51911 51 103.81911 43.6C 97.31911 39.3 92.11911 32.9 84.91911 29.8C 78.61911 35.5 74.11911 43.2 67.41911 48.5C 61.51911 45.4 54.91911 43.9 49.21911 40.4C 49.01911 31.8 50.11911 23.3 51.31911 14.8C 43.61911 13.8 36.31911 10.2 28.41911 10C 25.71911 18.1 23.01911 26.2 19.91911 34.2C 16.71911 33.4 13.31911 34.3 10.01911 33.8C 9.01911 44.9 11.51911 56.1 10.01911 67.1C 8.31911 79.9 10.91911 92.9 10.11911 105.7M 10.1191 105.6758L 10.146 105.6758C 31.3808 105.6758 49.3713 119.6601 55.5916 139L 123.3022 116.1145C 122.264 112.9519 121.1314 109.8364 119.8573 106.7682L 140.2433 91.2381C 136.8928 84.1575 132.9288 77.3601 128.493 70.9403L 104.8511 80.8532C 100.84 75.5663 96.3569 70.6099 91.5436 66.0783L 103.86 43.6092C 97.9613 38.5112 91.638 33.8852 84.9371 29.7785L 67.3825 48.4712C 61.5782 45.2614 55.5379 42.5707 49.2145 40.3994L 51.3381 14.8148C 43.9293 12.5962 36.2846 10.9913 28.4039 10L 19.9569 34.2156C 16.6537 33.9324 13.3505 33.7908 10 33.7908L 10.1191 105.6758Z"></path></g></g></g><g id="g-root-1.cu_sy_i0wmh3sx4npg-stroke" data-item-order="-82606" transform="translate(159.68475341796875, 62.99853515625)"><g id="1.cu_sy_i0wmh3sx4npg-stroke" fill="none" stroke-linecap="round" stroke-linejoin="round" stroke-miterlimit="4" stroke="#484848" stroke-width="4"><g><path d="M 140.215262 33.8C 138.315262 57.7 140.115262 81.7 140.315262 105.7C 119.115262 106.9 101.815262 119.9 94.815262 139C 72.715262 130.1 49.915262 122.6 26.915262 116.1C 28.315262 113.1 28.915262 109.8 30.415262 106.8C 23.415262 101.8 16.515262 96.8 10.015262 91.2C 14.615262 84.9 16.015262 76.2 21.715262 70.9C 29.215262 75.1 37.315262 78 45.415262 80.9C 49.915262 76 53.315262 70 58.715262 66.1C 55.115262 58.3 51.415262 50.5 46.415262 43.6C 52.915262 39.4 57.915262 32.5 65.315262 29.8C 71.615262 35.6 76.315262 43 82.815262 48.5C 89.215262 46.6 94.915262 43.2 101.015262 40.4C 98.415262 32.3 99.115262 23.4 98.915262 14.8C 106.315262 12.8 114.115262 11.5 121.815262 10C 123.515262 18.4 128.115262 25.9 130.315262 34.2C 133.615262 33.8 136.915262 33.8 140.215262 33.8M 140.2433 33.7908L 140.3152 105.6758L 140.2883 105.6758C 119.0536 105.6758 101.063 119.6601 94.8427 139L 26.941 116.1145C 27.932 112.9519 29.1118 109.8364 30.3859 106.7682L 10 91.2381C 13.3976 84.1103 17.3143 77.3601 21.7502 70.9403L 45.3922 80.8532C 49.4033 75.5663 53.8863 70.6099 58.6997 66.0783L 46.3831 43.6092C 52.2818 38.5112 58.6053 33.8852 65.3062 29.7785L 82.8607 48.4712C 88.6178 45.3086 94.7052 42.6179 101.0286 40.3994L 98.9051 14.8148C 106.3139 12.6434 114.0057 10.9913 121.8392 10L 130.2862 34.2156C 133.5894 33.9796 136.8928 33.7908 140.2433 33.7908Z"></path></g></g></g><g id="g-root-tx_iamsyste_dkgqfbsx7h8t-stroke" data-item-order="0" transform="translate(62, 37.99853515625)"></g><g id="g-root-tx_icapserv_v64h53sx8wsh-stroke" data-item-order="0" transform="translate(386, 37.99853515625)"></g><g id="g-root-book_dcch53sx64ge-stroke" data-item-order="0" transform="translate(224, 115.99853515625)"><g id="book_dcch53sx64ge-stroke" fill="none" stroke-linecap="round" stroke-linejoin="round" stroke-miterlimit="4" stroke="#484848" stroke-width="2"><g><path d="M 21.85 20.65C 21.700001 22.75 23.5 24.25 25.450001 24.400002C 27.549999 24.549999 28.900002 22.75 29.200001 20.65C 29.349998 18.700001 27.549999 17.35 25.450001 17.049999C 23.5 16.9 21.85 18.700001 21.85 20.65M 23.650002 30.700001C 22.150002 31 20.65 30.099998 19.15 30.700001C 19.450001 28.75 20.200001 26.950001 21.700001 25.599998C 23.200001 24.25 25.599998 23.650002 27.400002 24.549999M 22.299999 39.099998C 19.6 40.150002 16.6 39.699997 13.75 39.099998C 13 38.949997 12.25 38.800003 11.65 38.199997C 11.05 37.599998 10.45 36.849998 10.75 36.099998C 12.85 28.900002 10.9 21.25 10.75 13.75C 10.75 13 11.05 12.1 11.65 11.65C 12.25 11.2 13 10.45 13.75 10.75C 19.6 12.85 26.200001 11.8 32.200001 10.75C 33.849998 10.45 35.199997 12.1 35.349998 13.75C 35.5 15.85 34.75 17.950001 35.349998 19.9M 15.4 10.75C 16.299999 20.200001 14.8 29.650002 15.4 39.099998M 33.700001 34.900002C 33.400002 36.099998 34.75 36.849998 36.099998 37.150002C 37.300003 37.449997 38.199997 36.099998 38.349998 34.900002C 38.5 33.700001 37.300003 32.950001 36.099998 32.650002C 34.900002 32.200001 34 33.700001 33.700001 34.900002M 38.050003 26.049999C 38.050003 26.799999 38.349998 27.549999 38.650002 28.299999C 38.949997 28.900002 39.699997 29.349998 40.449997 29.349998C 41.199997 29.349998 41.949997 28.900002 42.699997 28.75C 43.599998 28.599998 44.5 28.900002 44.949997 29.799999C 45.400002 30.549999 45.099998 31.299999 44.650002 32.200001C 44.349998 32.799999 43.599998 33.25 43.150002 33.849998C 42.550003 34.449997 42.400002 35.5 43.150002 35.949997C 43.75 36.400002 44.349998 37 44.650002 37.599998C 45.099998 38.5 45.550003 39.400002 44.949997 40C 44.349998 40.75 43.599998 41.349998 42.699997 41.050003C 41.949997 40.75 41.199997 40.900002 40.449997 40.449997C 39.849998 40.150002 38.800003 40.75 38.650002 41.5C 38.650002 42.400002 38.349998 43.150002 38.050003 43.75C 37.599998 44.650002 37 45.400002 36.099998 45.25C 35.199997 45.099998 34.449997 44.650002 34.150002 43.75C 33.700001 43.150002 33.849998 42.25 33.400002 41.5C 32.950001 40.900002 32.349998 40.300003 31.599998 40.449997C 30.849998 40.75 30.099998 40.900002 29.349998 41.050003C 28.450001 41.050003 27.549999 40.900002 27.099998 40C 26.650002 39.25 26.950001 38.349998 27.400002 37.599998C 27.849998 37 28.450001 36.400002 29.049999 35.949997C 29.5 35.349998 29.650002 34.449997 29.049999 33.849998C 28.450001 33.400002 27.849998 32.799999 27.400002 32.200001C 26.950001 31.450001 26.950001 30.700001 27.099998 29.799999C 27.25 28.900002 28.450001 28.900002 29.349998 28.75C 30.099998 28.599998 30.849998 28.900002 31.599998 29.200001C 32.349998 29.650002 33.400002 29.049999 33.400002 28.150002C 33.400002 27.400002 34.150002 26.799999 34.150002 26.049999C 34 25.150002 35.199997 24.700001 36.099998 24.549999C 37 24.400002 37.900002 25.150002 38.050003 26.049999M 21.903999 20.723499C 21.903517 22.723663 23.524836 24.345375 25.525 24.345375C 27.525166 24.345375 29.146484 22.723663 29.146 20.723499C 29.146484 18.723335 27.525166 17.101625 25.525 17.101625C 23.524836 17.101625 21.903517 18.723335 21.903999 20.723499M 23.713001 30.683498L 19.186001 30.683498C 19.188393 28.67955 20.137329 26.79451 21.745581 25.598955C 23.353832 24.403402 25.432354 24.037868 27.351999 24.613001M 22.2535 39.116501L 13.820499 39.116501C 13.006567 39.117695 12.225561 38.795197 11.649601 38.220081C 11.073641 37.644966 10.749999 36.864433 10.75 36.050499L 10.75 13.816C 10.749999 13.002066 11.073641 12.221534 11.649601 11.646418C 12.225561 11.071301 13.006567 10.748805 13.820499 10.75L 32.219498 10.75C 33.913048 10.75 35.286171 12.122453 35.286999 13.816L 35.286999 19.949499M 15.3535 10.75L 15.3535 39.116501M 33.748001 34.900002C 33.748001 36.169979 34.777523 37.199501 36.047501 37.199501C 37.317478 37.199501 38.347 36.169979 38.347 34.900002C 38.347 33.63002 37.317478 32.600502 36.047501 32.600502C 34.777523 32.600502 33.748001 33.63002 33.748001 34.900002M 38.0005 26.002001L 38.678497 28.2295C 38.907471 28.999609 39.695438 29.459255 40.4785 29.279499L 42.736 28.756001C 43.614166 28.558781 44.518345 28.956833 44.965927 29.737688C 45.413506 30.518543 45.300003 31.499924 44.686001 32.158001L 43.109501 33.849998C 42.565163 34.439568 42.565163 35.348431 43.109501 35.938L 44.688999 37.641998C 45.303001 38.300079 45.416504 39.28146 44.968925 40.062313C 44.521347 40.84317 43.617165 41.241219 42.738998 41.044003L 40.481499 40.5205C 39.698441 40.340744 38.910469 40.800392 38.681499 41.570499L 38.003502 43.798C 37.744396 44.660526 36.950352 45.251091 36.049747 45.251091C 35.149147 45.251091 34.355103 44.660526 34.096001 43.798L 33.417999 41.570503C 33.189659 40.7999 32.40118 40.339954 31.618 40.520504L 29.359001 41.043999C 28.481478 41.238903 27.579185 40.840416 27.132166 40.060539C 26.685146 39.280663 26.797318 38.300694 27.408998 37.641998L 28.984001 35.949997C 29.529789 35.361 29.529789 34.451004 28.984001 33.862L 27.400002 32.152C 26.788317 31.493305 26.676147 30.513334 27.123167 29.733458C 27.570187 28.953583 28.472477 28.555092 29.349998 28.749998L 31.609001 29.2735C 32.392181 29.454048 33.18066 28.994104 33.409 28.223501L 34.087002 25.995998C 34.344082 25.128805 35.141495 24.534435 36.04599 24.53582C 36.950489 24.537209 37.746078 25.13402 38.0005 26.002001Z"></path></g></g></g><g id="g-root-mesh_1hgyu9zsx39cd-stroke" data-item-order="0" transform="translate(320, 115.99853515625)"><g id="mesh_1hgyu9zsx39cd-stroke" fill="none" stroke-linecap="round" stroke-linejoin="round" stroke-miterlimit="4" stroke="#484848" stroke-width="2"><g><path d="M 14.5 38.050003C 15.7 37.900002 16.299999 37 16.75 35.800003C 17.200001 34.599998 15.7 33.700001 14.5 33.549999C 13.3 33.400002 12.25 34.599998 12.25 35.800003C 12.25 37 13.3 37.900002 14.5 38.050003M 14.5 33.549999C 14.8 32.650002 14.8 31.599998 14.5 30.549999M 10 10M 16.6 36.849998C 17.049999 37.300003 17.65 37.449997 18.25 37.75M 28 28.75C 29.200001 29.049999 30.400002 27.700001 30.25 26.5C 30.099998 25.299999 29.200001 24.700001 28 24.25C 26.799999 23.799999 25.75 25.299999 25.75 26.5C 25.75 27.700001 26.799999 29.049999 28 28.75M 28 28.75C 28.150002 29.799999 27.849998 30.700001 28 31.75M 10 10M 23.5 24.25C 24.099998 24.849998 25.150002 25.299999 25.900002 25.599998M 10 10M 32.5 24.25C 31.599998 24.549999 30.849998 25.150002 30.099998 25.599998M 28 44.949997C 29.200001 45.099998 30.25 43.900002 30.25 42.699997C 30.25 41.349998 29.200001 40 28 40.449997C 26.799999 40.75 26.200001 41.5 25.75 42.699997C 25.450001 43.75 26.799999 45.099998 28 44.949997M 28 40.449997C 27.700001 39.400002 27.849998 38.349998 28 37.449997M 10 10M 23.5 40.449997C 24.25 40.900002 25.150002 41.199997 25.900002 41.650002M 10 10M 32.5 40.449997C 31.75 40.900002 31 41.5 30.099998 41.800003M 41.5 38.050003C 42.699997 37.900002 43.449997 37 43.75 35.800003C 44.050003 34.599998 42.699997 33.549999 41.5 33.549999C 40.300003 33.549999 38.800003 34.599998 39.25 35.800003C 39.699997 37 40.300003 37.75 41.5 38.050003M 41.5 33.549999C 41.800003 32.650002 41.5 31.599998 41.5 30.549999M 10 10M 37.75 37.75C 38.349998 37.300003 38.949997 37.150002 39.550003 36.849998M 28 15.7C 29.200001 15.4 29.799999 14.5 30.25 13.45C 30.700001 12.25 29.200001 11.05 28 11.2C 26.799999 11.2 25.75 12.1 25.75 13.45C 25.75 14.65 26.799999 16.15 28 15.7M 10 10M 23.5 15.7C 24.25 15.25 25.299999 15.1 26.049999 14.5M 10 10M 32.5 15.7C 31.75 15.1 30.700001 15.1 29.950001 14.35M 14.5 22.450001C 15.7 22.900002 16.9 21.4 16.75 20.200001C 16.6 19 15.7 18.25 14.5 17.950001C 13.3 17.65 12.25 19 12.25 20.200001C 12.25 21.4 13.3 22.900002 14.5 22.450001M 14.5 22.450001C 14.8 23.349998 14.35 24.400002 14.5 25.450001M 10 10M 16.450001 21.25C 17.049999 21.700001 17.65 22 18.25 22.150002M 10 10M 16.450001 19C 17.049999 18.549999 17.5 18.1 18.25 17.950001M 41.5 22.450001C 42.699997 22.75 43.300003 21.4 43.75 20.200001C 44.199997 19 42.699997 17.65 41.5 17.950001C 40.300003 18.25 39.400002 19 39.25 20.200001C 39.099998 21.4 40.300003 22 41.5 22.450001M 41.5 22.450001C 41.5 23.5 41.650002 24.400002 41.5 25.450001M 10 10M 37.75 22.150002C 38.349998 22 39.099998 21.700001 39.550003 21.25M 39.699997 18.85C 39.25 18.4 38.349998 18.4 37.75 17.950001M 14.5 38.050003C 15.742645 38.050003 16.75 37.042603 16.75 35.800003C 16.75 34.557251 15.742645 33.549999 14.5 33.549999C 13.257355 33.549999 12.25 34.557251 12.25 35.800003C 12.25 37.042603 13.257355 38.050003 14.5 38.050003ZM 14.5 33.549999L 14.5 30.549999M 10 10M 16.59985 36.849998L 18.249821 37.75M 28.000151 28.75C 29.24275 28.75 30.250151 27.742599 30.250151 26.5C 30.250151 25.257401 29.24275 24.25 28.000151 24.25C 26.757401 24.25 25.750151 25.257401 25.750151 26.5C 25.750151 27.742599 26.757401 28.75 28.000151 28.75ZM 28.000151 28.75L 28.000151 31.75M 10 10M 23.50009 24.25L 25.957901 25.55125M 10 10M 32.499851 24.25L 30.0742 25.614401M 28.000151 44.875C 29.24275 44.875 30.250151 43.867599 30.250151 42.625C 30.250151 41.382401 29.24275 40.375 28.000151 40.375C 26.757401 40.375 25.750151 41.382401 25.750151 42.625C 25.750151 43.867599 26.757401 44.875 28.000151 44.875ZM 28.000151 40.375L 28.000151 37.375M 10 10M 23.50009 40.375L 25.957901 41.67625M 10 10M 32.499851 40.375L 30.06835 41.742699M 41.5 38.050003C 42.742599 38.050003 43.75 37.042603 43.75 35.800003C 43.75 34.557251 42.742599 33.549999 41.5 33.549999C 40.257401 33.549999 39.25 34.557251 39.25 35.800003C 39.25 37.042603 40.257401 38.050003 41.5 38.050003ZM 41.5 33.549999L 41.5 30.549999M 10 10M 37.75 37.75L 39.51955 36.865299M 28.000151 15.625C 29.24275 15.625 30.250151 14.617645 30.250151 13.375C 30.250151 12.132355 29.24275 11.125 28.000151 11.125C 26.757401 11.125 25.750151 12.132355 25.750151 13.375C 25.750151 14.617645 26.757401 15.625 28.000151 15.625ZM 10 10M 23.50009 15.625105L 26.01955 14.43949M 10 10M 32.499851 15.625075L 30.015699 14.38291M 14.5 22.450075C 15.742645 22.450075 16.75 21.44272 16.75 20.200075C 16.75 18.95743 15.742645 17.950075 14.5 17.950075C 13.257355 17.950075 12.25 18.95743 12.25 20.200075C 12.25 21.44272 13.257355 22.450075 14.5 22.450075ZM 14.5 22.450075L 14.5 25.450001M 10 10M 16.515625 21.20422L 18.249821 22.150179M 10 10M 16.380865 18.969521L 18.249821 17.950075M 41.5 22.450075C 42.742599 22.450075 43.75 21.44272 43.75 20.200075C 43.75 18.95743 42.742599 17.950075 41.5 17.950075C 40.257401 17.950075 39.25 18.95743 39.25 20.200075C 39.25 21.44272 40.257401 22.450075 41.5 22.450075ZM 41.5 22.450075L 41.5 25.450001M 10 10M 37.75 22.15024L 39.51955 21.265465M 39.665951 18.908066L 37.75 17.950075"></path></g></g></g><g id="g-root-lock_1luacw7sxa9l9-stroke" data-item-order="0" transform="translate(194, 211.99853515625)"><g id="lock_1luacw7sxa9l9-stroke" fill="none" stroke-linecap="round" stroke-linejoin="round" stroke-miterlimit="4" stroke="#484848" stroke-width="2"><g><path d="M 10.75 16.75C 10 20.049999 17.200001 21.549999 25 22.75C 32.799999 23.950001 39.25 20.049999 39.25 16.75C 39.400002 13.45 32.650002 12.55 25 10.75C 17.35 8.95 10.9 13.45 10.75 16.75M 26.5 28.75C 26.049999 28.599998 25.450001 28.599998 25 28.75C 17.65 31.599998 10.9 26.049999 10.75 22.75M 26.5 35.5C 26.049999 35.5 25.599998 35.5 25 35.5C 17.200001 36.400002 11.05 32.799999 10.75 29.5M 39.25 23.5C 39.699997 21.25 39.849998 19 39.25 16.75M 10.75 16.75C 9.25 23.049999 10.3 29.799999 10.75 36.25C 11.05 39.550003 17.35 40.449997 25 42.25C 25.450001 42.400002 26.049999 42.099998 26.5 42.25M 45.25 43.75C 45.550003 44.5 44.5 45.550003 43.75 45.25C 40.449997 43.900002 36.699997 45.550003 33.25 45.25C 32.5 45.25 31.599998 44.5 31.75 43.75C 32.5 40.900002 31.900002 37.75 31.75 34.75C 31.75 33.849998 32.5 33.549999 33.25 33.25C 36.550003 32.200001 40.449997 32.200001 43.75 33.25C 44.5 33.549999 45.400002 33.849998 45.25 34.75C 44.800003 37.75 45.25 40.75 45.25 43.75M 36.699997 39.400002C 37 40.300003 37.599998 40.900002 38.5 41.199997C 39.550003 41.5 40.599998 40.449997 40.449997 39.400002C 40.300003 38.349998 39.550003 37.150002 38.5 37.449997C 37.599998 37.75 36.25 38.349998 36.699997 39.400002M 42.25 31C 42.550003 28.900002 40.599998 26.950001 38.5 27.25C 36.550003 27.549999 35.050003 28.900002 34.75 31C 34.599998 31.75 34.900002 32.5 34.75 33.25C 37.300003 33.400002 39.849998 33.700001 42.25 33.25C 42.099998 32.5 42.550003 31.75 42.25 31M 10.783 16.751499C 10.783 20.065208 17.162943 22.751501 25.033001 22.751501C 32.903057 22.751501 39.282997 20.065208 39.282997 16.751499C 39.282997 13.437792 32.903057 10.7515 25.033001 10.7515C 17.162943 10.7515 10.783 13.437792 10.783 16.751499ZM 26.5315 28.7185C 26.036499 28.741001 25.5385 28.751501 25.0315 28.751501C 17.1625 28.751501 10.7815 26.066502 10.7815 22.751501M 26.5315 35.468498C 26.036499 35.490997 25.5385 35.501499 25.0315 35.501499C 17.1625 35.501499 10.7815 32.816502 10.7815 29.501501M 39.281502 23.501501L 39.281502 16.751499M 10.7815 16.75L 10.7815 36.25C 10.7815 39.564999 17.1625 42.25 25.0315 42.25C 25.5385 42.25 26.039499 42.239502 26.5315 42.217003M 45.281502 43.75C 45.281502 44.578426 44.609924 45.25 43.781502 45.25L 33.281502 45.25C 32.453072 45.25 31.7815 44.578426 31.7815 43.75L 31.7815 34.75C 31.7815 33.921574 32.453072 33.25 33.281502 33.25L 43.781502 33.25C 44.609924 33.25 45.281502 33.921574 45.281502 34.75ZM 36.656502 39.346001C 36.656502 40.381535 37.495968 41.221001 38.531502 41.221001C 39.567036 41.221001 40.406502 40.381535 40.406502 39.346001C 40.406502 38.310467 39.567036 37.471001 38.531502 37.471001C 37.495968 37.471001 36.656502 38.310467 36.656502 39.346001ZM 42.281502 31C 42.281502 28.928932 40.60257 27.25 38.531502 27.25C 36.460434 27.25 34.781502 28.928932 34.781502 31L 34.781502 33.25L 42.281502 33.25Z"></path></g></g></g><g id="g-root-lock_v491vrsx0gzm-stroke" data-item-order="0" transform="translate(350, 211.99853515625)"><g id="lock_v491vrsx0gzm-stroke" fill="none" stroke-linecap="round" stroke-linejoin="round" stroke-miterlimit="4" stroke="#484848" stroke-width="2"><g><path d="M 29.200001 36.550003C 24.25 35.5 18.85 38.050003 14.05 36.550003C 12.4 36.099998 11.35 35.199997 10.9 33.549999C 9.1 27.25 11.05 20.35 10.9 13.9C 10.9 12.1 12.25 10.6 14.05 10.75C 21.85 11.2 29.650002 10.9 37.599998 10.75C 39.25 10.75 40.449997 12.25 40.75 13.9C 41.199997 17.049999 40.75 20.200001 40.75 23.349998M 10.9 16.9C 20.799999 17.950001 30.849998 15.4 40.75 16.9M 10.9 29.950001C 16.9 30.849998 23.200001 31.299999 29.200001 29.950001M 10.9 23.349998C 20.799999 22.450001 30.849998 25 40.75 23.349998M 23.049999 16.9C 21.4 23.200001 20.799999 30.400002 23.049999 36.550003M 31.75 16.9C 32.650002 20.200001 32.349998 23.950001 31.75 27.400002M 32.200001 36.400002C 32.049999 35.199997 33.25 34.449997 34.449997 34.150002C 37.150002 33.400002 40.150002 34.75 42.849998 34.150002C 44.050003 33.849998 44.800003 35.199997 45.099998 36.400002C 45.550003 38.5 45.25 40.75 45.099998 43C 44.949997 44.199997 44.050003 45.099998 42.849998 45.25C 40.150002 45.699997 37.150002 45.849998 34.449997 45.25C 33.25 44.949997 32.049999 44.199997 32.200001 43C 32.650002 40.900002 31.75 38.5 32.200001 36.400002M 38.650002 27.400002C 36.25 27.849998 34.300003 29.5 34.449997 31.900002C 34.449997 32.650002 34.599998 33.400002 34.449997 34.150002C 37.300003 34.300003 40.150002 34.300003 43 34.150002C 42.849998 33.400002 42.849998 32.650002 43 31.900002C 43.449997 29.5 41.050003 27.099998 38.650002 27.400002M 38.650002 38.050003C 38.050003 38.199997 37.300003 38.5 37.150002 39.099998C 37 39.699997 37.150002 40.300003 37.449997 40.900002C 37.75 41.349998 38.650002 41.650002 39.25 41.199997C 39.699997 40.75 40.150002 40.449997 40.300003 39.699997C 40.449997 38.800003 39.550003 38.199997 38.650002 38.050003M 29.144499 36.621998L 14.0335 36.621998C 12.30243 36.620346 10.9 35.216568 10.9 33.4855L 10.9 13.8865C 10.9 12.15543 12.30243 10.751656 14.033501 10.75L 37.553497 10.75C 39.285156 10.750828 40.688503 12.154844 40.688503 13.8865L 40.688499 23.390499M 10.897 16.8745L 40.688499 16.8745M 10.897 29.887001L 29.144499 29.887001M 10.897 23.390499L 40.688499 23.390499M 23.065001 16.8745L 23.065001 36.621998M 31.789 16.8745L 31.789 27.404499M 32.254002 36.327999C 32.253998 35.09613 33.252628 34.0975 34.484501 34.0975L 42.872501 34.0975C 44.103199 34.099155 45.099998 35.097298 45.099998 36.327999L 45.099998 43.019501C 45.099998 44.250202 44.103199 45.248344 42.872498 45.25L 34.484501 45.25C 33.252628 45.25 32.253998 44.251373 32.253998 43.019501ZM 38.678497 27.400002L 38.678497 27.400002C 36.26437 27.450024 34.347454 29.446838 34.396 31.861L 34.396 34.093002L 42.961002 34.093002L 42.961002 31.865499C 43.01207 29.449598 41.094421 27.45001 38.678497 27.4ZM 38.678497 38.1115C 38.019615 38.08456 37.410496 38.460789 37.139603 39.062012C 36.868713 39.663239 36.990433 40.368759 37.447121 40.84446C 37.903812 41.32016 38.603783 41.470535 39.215549 41.224373C 39.82732 40.978214 40.228065 40.384937 40.228001 39.725502C 40.245575 38.852013 39.551971 38.129539 38.678497 38.1115L 38.678497 38.1115"></path></g></g></g><g id="g-root-tx_dlpsyste_v303pjsx8vm6-stroke" data-item-order="0" transform="translate(-10, 241.99853515625)"></g><g id="g-root-tx_siems_ddlih3sx8wzk-stroke" data-item-order="0" transform="translate(458, 241.99853515625)"></g><g id="g-root-1_dkgqfbsww9on-stroke" data-item-order="0" transform="translate(272, 271.99853515625)"><g id="1_dkgqfbsww9on-stroke" fill="none" stroke-linecap="round" stroke-linejoin="round" stroke-miterlimit="4" stroke="#484848" stroke-width="2"><g><path d="M 19 28.900002C 20.200001 28.599998 21.25 27.849998 21.25 26.650002C 21.25 25.299999 20.200001 24.700001 19 24.400002C 17.799999 23.950001 16.450001 25.450001 16.75 26.650002C 17.049999 27.700001 17.799999 28.599998 19 28.900002M 28 21.4C 29.200001 21.4 30.099998 20.35 30.25 19.15C 30.400002 17.799999 29.200001 16.9 28 16.9C 26.799999 16.75 25.599998 17.799999 25.75 19.15C 26.049999 20.35 26.799999 21.700001 28 21.4M 28 21.4C 27.700001 26.799999 26.799999 32.5 28 37.900002M 21.25 26.650002C 21.700001 26.5 22 26.5 22.450001 26.650002C 23.349998 26.650002 24.25 27.25 23.950001 28.150002C 23.049999 31.150002 23.5 34.599998 23.950001 37.900002M 37 28.900002C 38.199997 28.75 38.949997 27.700001 39.25 26.650002C 39.550003 25.450001 38.199997 24.700001 37 24.400002C 35.800003 23.950001 34.75 25.299999 34.75 26.650002C 34.75 27.849998 35.800003 28.450001 37 28.900002M 34.75 26.650002C 34.449997 26.650002 34 26.5 33.700001 26.650002C 32.799999 26.650002 32.200001 27.099998 32.200001 28.150002C 32.049999 31.299999 31.150002 34.75 32.200001 37.900002M 13.45 15.85C 13.45 19.75 13 23.5 13.45 27.25C 14.2 34.599998 17.65 42.550003 24.849998 43.900002C 25.450001 44.050003 25.900002 44.349998 26.349998 44.5C 27.400002 44.949997 28.900002 45.25 29.650002 44.5C 30.099998 44.199997 30.700001 44.050003 31.150002 43.900002C 38.199997 41.650002 44.349998 34.449997 42.550003 27.25C 41.650002 23.650002 42.25 19.75 42.550003 15.85C 42.699997 14.95 42.099998 14.2 41.199997 13.75C 38.949997 13.15 34.150002 12.4 27.849998 11.2C 21.549999 9.85 16.9 13.6 14.5 13.75C 13.75 14.2 13.3 15.1 13.45 15.85M 19 28.825001C 20.242645 28.825001 21.250031 27.817749 21.250031 26.575001C 21.250031 25.332399 20.242645 24.325075 19 24.325075C 17.757355 24.325075 16.75 25.332399 16.75 26.575001C 16.75 27.817749 17.757355 28.825001 19 28.825001ZM 28 21.325075C 29.242599 21.325075 30.25 20.31772 30.25 19.075075C 30.25 17.83243 29.242599 16.825075 28 16.825075C 26.757401 16.825075 25.75 17.83243 25.75 19.075075C 25.75 20.31772 26.757401 21.325075 28 21.325075ZM 28 21.325075L 28 37.824997M 21.25 26.575001L 22.449986 26.575001C 23.349985 26.575001 23.949986 27.174999 23.949986 28.075001L 23.949986 37.824997M 37 28.825001C 38.242599 28.825001 39.25 27.817749 39.25 26.575001C 39.25 25.332399 38.242599 24.325075 37 24.325075C 35.757401 24.325075 34.75 25.332399 34.75 26.575001C 34.75 27.817749 35.757401 28.825001 37 28.825001ZM 34.750149 26.575001L 33.700001 26.575001C 32.799999 26.575001 32.200001 27.174999 32.200001 28.075001L 32.200001 37.824997M 13.450075 15.919675L 13.450075 27.306999C 13.450075 34.648899 17.95009 41.24155 24.850075 43.938549L 26.350149 44.5378C 27.40015 44.98735 28.599998 44.98735 29.650002 44.5378L 31.150002 43.938549C 38.050003 41.24155 42.550003 34.648899 42.550003 27.306999L 42.550003 15.919675C 42.550003 15.020665 42.099998 14.271505 41.199997 13.822001C 39.099998 12.773155 34.300148 11.125 27.850149 11.125C 21.400074 11.125 16.750074 12.92299 14.500075 13.822001C 13.900075 14.271505 13.450075 15.020665 13.450075 15.919675Z"></path></g></g></g><g id="g-root-tx_socthrea_1lqjljbsx8xs7-stroke" data-item-order="0" transform="translate(224, 373.99853515625)"></g></g></g></svg>