<?xml version="1.0" encoding="utf-8" standalone="yes"?>
<!DOCTYPE svg PUBLIC "-//W3C//DTD SVG 1.1//EN" "http://www.w3.org/Graphics/SVG/1.1/DTD/svg11.dtd">
<svg width="758" height="721" viewBox="0 0 758 721" style="fill:none;stroke:none;fill-rule:evenodd;clip-rule:evenodd;stroke-linecap:round;stroke-linejoin:round;stroke-miterlimit:1.5;" version="1.1" xmlns="http://www.w3.org/2000/svg" xmlns:xlink="http://www.w3.org/1999/xlink"><style class="text-font-style fontImports" data-font-family="Shantell Sans">@import url('https://fonts.googleapis.com/css2?family=Shantell+Sans:wght@300..800&amp;display=block');</style><g id="items" style="isolation: isolate"><g id="blend" style="mix-blend-mode: normal"><g id="g-root-5.g-5_fr_18gxpyvtr4v0v-fill" data-item-order="2999522956" transform="translate(517.99853515625, 146.005859375)"><g id="5.g-5_fr_18gxpyvtr4v0v-fill" stroke="none" fill="#426397"><g><path d="M 113.6 3.7L 104.6 8.5L 111.2 27.6L 123 21.4ZM 111.2 27.6L 144 21.9L 132.1 3.6L 104.6 8.5ZM 132.1 3.6L 117.8 24.8L 130.1 42.5L 144 21.9ZM 130.1 42.5L 158.5 35.7L 143.3 18.8L 117.8 24.8ZM 143.3 18.8L 137.1 36.3L 150.9 57L 158.5 35.7ZM 150.9 57L 172.1 58.1L 164.3 37.7L 137.1 36.3ZM 164.3 37.7L 149.9 52.1L 157.2 73.2L 172.1 58.1ZM 157.2 73.2L 192.1 77.6L 184.8 56.5L 149.9 52.1ZM 184.8 56.5L 168.5 72.9L 178.9 90.9L 192.1 77.6ZM 178.9 90.9L 210 82.8L 198.7 65.1L 168.5 72.9ZM 198.7 65.1L 181.8 85.7L 191.8 105.1L 210 82.8ZM 191.8 105.1L 223.7 102.8L 219.6 83L 181.8 85.7ZM 219.6 83L 207.2 87.5L 213.8 106.3L 223.7 102.8Z" fill-rule="nonzero"></path></g></g><g id="5.g-5_fr_18gxpyvtr4v0v-fill" stroke="none" fill="#426397"><g><path d="M 161.7 94.7L 158.4 94.7L 151 114.8L 162 114.7ZM 151 114.8L 178.8 139.3L 185.9 119L 158.4 94.7ZM 185.9 119L 159.2 120.2L 153.6 140.5L 178.8 139.3ZM 153.6 140.5L 180.7 158.5L 187.7 139.1L 159.2 120.2ZM 187.7 139.1L 164.9 136.7L 156.8 156L 180.7 158.5ZM 156.8 156L 188.9 182.9L 197.9 164.3L 164.9 136.7ZM 197.9 164.3L 183.5 161.3L 166.7 178.3L 188.9 182.9ZM 166.7 178.3L 168.3 185.2L 156.9 188.6L 153.9 210.3L 173.3 204.6L 187.6 180.3L 183.5 161.3ZM 153.9 210.3L 183.3 228.8L 188.8 208.6L 156.9 188.6ZM 188.8 208.6L 153.8 209.8L 149 230L 183.3 228.8ZM 149 230L 180.9 247L 186.6 227.4L 153.8 209.8ZM 186.6 227.4L 159.5 225.3L 151.2 244.7L 180.9 247ZM 151.2 244.7L 180.5 271.1L 187.6 250.6L 159.5 225.3ZM 187.6 250.6L 152.1 253L 147 273.4L 180.5 271.1ZM 147 273.4L 185.1 297.1L 190.2 276.7L 152.1 253ZM 190.2 276.7L 151.3 279L 147.1 299.3L 185.1 297.1ZM 147.1 299.3L 179.8 315.9L 186 296.6L 151.3 279ZM 186 296.6L 157.9 292.3L 150.9 311.5L 179.8 315.9ZM 150.9 311.5L 185.1 332.7L 189.5 311.9L 157.9 292.3ZM 189.5 311.9L 156.3 316.5L 150.9 337.5L 185.1 332.7ZM 150.9 337.5L 180.9 360.3L 187.2 340L 156.3 316.5ZM 187.2 340L 153 341.4L 148.9 361.6L 180.9 360.3ZM 148.9 361.6L 185.7 379.2L 189.6 358.9L 153 341.4ZM 189.6 358.9L 151.4 361.2L 146.7 381.6L 185.7 379.2ZM 146.7 381.6L 180.4 400.7L 184.3 379.9L 151.4 361.2ZM 184.3 379.9L 157.5 383.9L 152.5 404.8L 180.4 400.7ZM 152.5 404.8L 179 423.3L 185.6 403.5L 157.5 383.9ZM 185.6 403.5L 156.6 402.5L 149.7 422.3L 179 423.3ZM 149.7 422.3L 177.8 443.2L 183.8 422.7L 156.6 402.5ZM 183.8 422.7L 150.9 425.2L 146.2 445.6L 177.8 443.2ZM 146.2 445.6L 181 466.1L 184.2 444.8L 150.9 425.2ZM 184.2 444.8L 156 451.6L 152.4 473L 181 466.1ZM 152.4 473L 180 490.7L 183.8 469.4L 156 451.6ZM 183.8 469.4L 152 476.5L 156.3 496L 180 490.7Z" fill-rule="nonzero"></path></g></g><g id="5.g-5_fr_18gxpyvtr4v0v-fill" stroke="none" fill="#426397"><g><path d="M 104.4 8L 104.1 8L 97.7 28.4L 105.5 27.9ZM 97.7 28.4L 125.4 49.8L 132 29.6L 104.1 8ZM 132 29.6L 67.2 31.6L 65.2 51.6L 125.4 49.8ZM 65.2 51.6L 144.1 70.2L 146 50.1L 67.2 31.6ZM 146 50.1L 49.5 54.2L 49.1 74.3L 144.1 70.2ZM 49.1 74.3L 164.2 83.9L 163.1 63.7L 49.5 54.2ZM 163.1 63.7L 103.6 75.2L 101.6 96L 164.2 83.9ZM 101.6 96L 150.7 115.6L 154 95.3L 103.6 75.2ZM 154 95.3L 123.1 97.2L 118.2 117.6L 150.7 115.6ZM 118.2 117.6L 146.5 134.3L 155.5 116.4L 123.1 97.2ZM 155.5 116.4L 147.6 113L 139.7 131.4L 146.5 134.3ZM 34.7 79.2L 19.1 80.8L 21.2 100.7L 36.8 99.1ZM 152.8 185.4L 139.9 186.5L 130.6 207.2L 154.3 205.4ZM 130.6 207.2L 141.9 222.3L 155.7 207.3L 139.9 186.5ZM 155.7 207.3L 147.8 202.4L 133.1 216.8L 141.9 222.3ZM 133.1 216.8L 148.6 242.6L 157.8 219.1L 147.8 202.4ZM 157.8 219.1L 145.4 222.7L 134 246.8L 148.6 242.6ZM 134 246.8L 143.5 269.1L 156.4 248.6L 145.4 222.7ZM 156.4 248.6L 141.3 249.2L 132.7 269.6L 143.5 269.1ZM 132.7 269.6L 149.4 288.2L 157.7 267.4L 141.3 249.2ZM 157.7 267.4L 140.2 268.9L 130.1 289.8L 149.4 288.2ZM 130.1 289.8L 144.6 311.7L 151.9 286.5L 140.2 268.9ZM 151.9 286.5L 145.7 290.1L 135.5 314.1L 140.7 331L 155.7 313.6L 153.6 307.7L 144.6 311.7ZM 155.7 313.6L 146.8 311.8L 131.7 329.2L 140.7 331ZM 131.7 329.2L 140 352.9L 153.4 330.9L 146.8 311.8ZM 153.4 330.9L 139.5 332.8L 129.8 354.3L 140 352.9ZM 129.8 354.3L 134.9 362L 141.3 359.6L 135.5 380.2L 135.6 385.5L 142.2 382.2L 136.5 406.4L 144.6 423.9L 156.8 404.3L 153.2 397.6L 145.7 402.9L 153.5 376.3L 152.5 373.9L 146.4 378.4L 151.3 350.6L 139.5 332.8ZM 156.8 404.3L 140.6 403.7L 129.2 423.3L 144.6 423.9ZM 129.2 423.3L 142.8 445L 151.5 421.2L 140.6 403.7ZM 151.5 421.2L 143.4 423.8L 132.1 448.5L 142.8 445ZM 132.1 448.5L 134.3 453.7L 136 455.5L 135.3 468.7L 140.5 486L 155.7 471L 152 463L 150 466.5L 151.5 443.2L 143.4 423.8ZM 155.7 471L 143.6 465.4L 135.1 483.5L 140.5 486Z" fill-rule="nonzero"></path></g></g></g><g id="g-root-4.g-4_fr_deto6vtr4vt7-fill" data-item-order="2999522964" transform="translate(469.99749755859375, 212.005859375)"><g id="4.g-4_fr_deto6vtr4vt7-fill" stroke="none" fill="#41735b"><g><path d="M 109.6 1L 101.8 10.4L 112.1 29.3L 125 13.7ZM 112.1 29.3L 143.4 25.4L 129.9 7L 101.8 10.4ZM 129.9 7L 120.3 27.7L 134.1 45.6L 143.4 25.4ZM 134.1 45.6L 163.5 40.6L 154 21.9L 120.3 27.7ZM 154 21.9L 140.4 35.3L 148.9 55L 163.5 40.6ZM 148.9 55L 173.2 54L 162.5 34.4L 140.4 35.3ZM 162.5 34.4L 148.1 54.8L 158.9 74.2L 173.2 54ZM 158.9 74.2L 195.7 71.8L 187.9 52.2L 148.1 54.8ZM 187.9 52.2L 168.9 68.1L 175.3 88.8L 195.7 71.8ZM 175.3 88.8L 206.1 91.8L 194.6 70.6L 168.9 68.1ZM 194.6 70.6L 187.6 83.9L 200.3 102.8L 206.1 91.8ZM 200.3 102.8L 226.2 100.3L 219.5 80.8L 187.6 83.9ZM 219.5 80.8L 206.3 89.2L 217.1 106.1L 226.2 100.3Z" fill-rule="nonzero"></path></g></g><g id="4.g-4_fr_deto6vtr4vt7-fill" stroke="none" fill="#41735b"><g><path d="M 169.4 98.5L 161 95.7L 151.2 113.6L 163.2 117.5ZM 151.2 113.6L 176.3 134.3L 182.1 113.2L 161 95.7ZM 182.1 113.2L 149.9 117.9L 146.5 138.7L 176.3 134.3ZM 146.5 138.7L 184.3 158L 189.2 138L 149.9 117.9ZM 189.2 138L 169.3 137.9L 157.8 157.8L 184.3 158ZM 157.8 157.8L 173.8 184.9L 186.2 166.6L 169.3 137.9ZM 186.2 166.6L 160.6 162.7L 153.1 181.8L 173.8 184.9ZM 153.1 181.8L 183.8 202.7L 189.4 182.3L 160.6 162.7ZM 189.4 182.3L 152.9 184.6L 147.4 205L 183.8 202.7ZM 147.4 205L 176.9 224.9L 182.8 204.8L 152.9 184.6ZM 182.8 204.8L 154.5 205.4L 146.8 225.6L 176.9 224.9ZM 146.8 225.6L 176.5 253.1L 185.8 234.4L 154.5 205.4ZM 185.8 234.4L 158.7 229.8L 150.9 248.7L 176.5 253.1ZM 150.9 248.7L 179.1 268.8L 182.9 246.9L 158.7 229.8ZM 182.9 246.9L 153 255.4L 151.5 276.7L 179.1 268.8ZM 151.5 276.7L 185 291.6L 189.5 271.7L 153 255.4ZM 189.5 271.7L 154.3 270.9L 146.7 290.7L 185 291.6ZM 146.7 290.7L 176.3 316.2L 184.2 296.6L 154.3 270.9ZM 184.2 296.6L 158.6 295.2L 150 314.8L 176.3 316.2ZM 150 314.8L 176.8 341.2L 185.2 321.4L 158.6 295.2ZM 185.2 321.4L 151 320.4L 146.1 340.2L 176.8 341.2ZM 146.1 340.2L 180.6 357L 183.5 336.2L 151 320.4ZM 183.5 336.2L 150.2 341.9L 147.4 362.7L 180.6 357ZM 147.4 362.7L 180.8 378.4L 183.9 357.7L 150.2 341.9ZM 183.9 357.7L 152.3 362.2L 147.2 383.2L 180.8 378.4ZM 147.2 383.2L 177.1 404.6L 182.7 384L 152.3 362.2ZM 182.7 384L 150.2 387L 146.2 407.4L 177.1 404.6ZM 146.2 407.4L 183.2 426.7L 186.6 405.9L 150.2 387ZM 186.6 405.9L 153.4 411.1L 156.5 430.9L 183.2 426.7ZM 196.2 163.7L 187.1 161.2L 181.8 180.5L 190.9 183Z" fill-rule="nonzero"></path></g></g><g id="4.g-4_fr_deto6vtr4vt7-fill" stroke="none" fill="#41735b"><g><path d="M 98.4 5.9L 93.2 7.8L 92.2 29.5L 105.3 24.7ZM 92.2 29.5L 126.7 46L 130.5 25.7L 93.2 7.8ZM 130.5 25.7L 71.8 29.9L 69.8 50.1L 126.7 46ZM 69.8 50.1L 141.5 70.5L 143.8 50.3L 71.8 29.9ZM 143.8 50.3L 51.5 55.4L 51.2 75.5L 141.5 70.5ZM 51.2 75.5L 171.1 85.5L 170.9 65.4L 51.5 55.4ZM 170.9 65.4L 100.2 72.6L 97.4 93L 171.1 85.5ZM 97.4 93L 144.5 111.6L 147.7 91.4L 100.2 72.6ZM 147.7 91.4L 123 92.8L 115.8 113.2L 144.5 111.6ZM 115.8 113.2L 141.7 136.1L 155 121.2L 123 92.8ZM 155 121.2L 148.9 115.7L 135.5 130.5L 141.7 136.1ZM 23.5 82L 13.6 89.3L 25.5 105.4L 35.4 98.1ZM 154.3 180L 143.9 178.8L 129.3 197.3L 152.1 199.8ZM 129.3 197.3L 138.2 222.2L 154.1 207.3L 143.9 178.8ZM 154.1 207.3L 149 205.1L 131.8 219.5L 138.2 222.2ZM 131.8 219.5L 138.7 248.5L 155.1 230.9L 149 205.1ZM 155.1 230.9L 140.2 228.4L 129.1 246.9L 138.7 248.5ZM 129.1 246.9L 144.4 266.9L 151.5 243.2L 140.2 228.4ZM 151.5 243.2L 138.3 247.9L 131.5 271.5L 144.4 266.9ZM 131.5 271.5L 144.6 288.1L 151.9 265.1L 138.3 247.9ZM 151.9 265.1L 141.5 268.1L 130.2 292.3L 144.6 288.1ZM 130.2 292.3L 139.8 314L 151.9 291.9L 141.5 268.1ZM 151.9 291.9L 138.4 294L 130.2 315.5L 139.8 314ZM 130.2 315.5L 147.1 336.4L 154.4 313.6L 138.4 294ZM 154.4 313.6L 141.4 317.2L 131.6 340.7L 147.1 336.4ZM 131.6 340.7L 140.3 356.4L 154.7 341.2L 141.4 317.2ZM 154.7 341.2L 150.7 339.2L 134.4 353.5L 140.3 356.4ZM 134.4 353.5L 136.7 360.2L 143.8 358.6L 134 379.1L 133.8 385.2L 137 382.9L 136.7 407.7L 143.4 402.9L 152.7 378L 152 375.1L 144.3 378.7L 155.3 352.8L 150.7 339.2ZM 136.7 407.7L 149.8 417.5L 154.7 396.2L 137 382.9ZM 154.7 396.2L 135.6 399.8L 139.3 419.4L 149.8 417.5Z" fill-rule="nonzero"></path></g></g></g><g id="g-root-3.g-3_fr_1hdtodztr4wef-fill" data-item-order="2999522972" transform="translate(421.99749755859375, 278.005859375)"><g id="3.g-3_fr_1hdtodztr4wef-fill" stroke="none" fill="#776f30"><g><path d="M 110.2 4.9L 107.1 7.2L 114.8 26.5L 122.4 20.8ZM 114.8 26.5L 143.6 23.4L 131.6 4.6L 107.1 7.2ZM 131.6 4.6L 120.2 23.5L 131.5 43.5L 143.6 23.4ZM 131.5 43.5L 161 43.6L 153.3 23.5L 120.2 23.5ZM 153.3 23.5L 133.3 41.6L 142.8 60L 161 43.6ZM 142.8 60L 180.4 51.7L 169.6 33.6L 133.3 41.6ZM 169.6 33.6L 154.9 50.8L 163 72.1L 180.4 51.7ZM 163 72.1L 192.5 76.3L 189.4 55.7L 154.9 50.8ZM 189.4 55.7L 167.5 66L 172.3 85.8L 192.5 76.3ZM 172.3 85.8L 210.5 84.7L 200 65L 167.5 66ZM 200 65L 183.7 87.5L 194.9 106.1L 210.5 84.7ZM 194.9 106.1L 225.8 101.9L 217.7 82.8L 183.7 87.5ZM 217.7 82.8L 202.3 94.9L 214.7 110.6L 225.8 101.9Z" fill-rule="nonzero"></path></g></g><g id="3.g-3_fr_1hdtodztr4wef-fill" stroke="none" fill="#776f30"><g><path d="M 155.9 96.9L 151.6 98.7L 151.2 120.5L 163.6 115.3ZM 151.2 120.5L 185.2 136.1L 186.7 114.7L 151.6 98.7ZM 186.7 114.7L 156 124L 153 145.8L 185.2 136.1ZM 153 145.8L 177.6 161.3L 181.2 140L 156 124ZM 181.2 140L 163.7 143.9L 162.4 164.7L 177.6 161.3ZM 162.4 164.7L 198.2 177.8L 198.8 156.8L 163.7 143.9ZM 198.8 156.8L 175.3 163.7L 165.9 187.3L 198.2 177.8ZM 165.9 187.3L 176.7 205.9L 187 183.8L 175.3 163.7ZM 187 183.8L 156 189.2L 154 209.9L 176.7 205.9ZM 154 209.9L 182.6 220.8L 184.1 199.9L 156 189.2ZM 184.1 199.9L 157 206.2L 153 227.7L 182.6 220.8ZM 153 227.7L 183.6 248.3L 188.7 227.7L 157 206.2ZM 188.7 227.7L 156.9 231L 152.5 251.6L 183.6 248.3ZM 152.5 251.6L 184.7 269.8L 189.4 249.5L 156.9 231ZM 189.4 249.5L 151.9 251.6L 147.1 271.9L 184.7 269.8ZM 147.1 271.9L 184.6 293.6L 189.9 273.6L 151.9 251.6ZM 189.9 273.6L 153.4 273.7L 146.7 293.7L 184.6 293.6ZM 146.7 293.7L 178.1 317.4L 185.1 297.7L 153.4 273.7ZM 185.1 297.7L 155.4 296.6L 150.5 316.5L 178.1 317.4ZM 150.5 316.5L 186.1 333.7L 189.4 313.1L 155.4 296.6ZM 189.4 313.1L 150.3 318.2L 147.1 338.8L 186.1 333.7ZM 147.1 338.8L 185.1 356.6L 188.5 336.1L 150.3 318.2ZM 188.5 336.1L 154.2 340L 156.4 359.8L 185.1 356.6ZM 170.2 161.4L 151.7 161.4L 151.8 181.4L 170.3 181.4Z" fill-rule="nonzero"></path></g></g><g id="3.g-3_fr_1hdtodztr4wef-fill" stroke="none" fill="#776f30"><g><path d="M 102.2 6.9L 98.6 9.8L 99.3 35.1L 114.9 22.3ZM 99.3 35.1L 120.9 50.9L 125.9 29.7L 98.6 9.8ZM 125.9 29.7L 65.3 40L 66.6 60.1L 120.9 50.9ZM 66.6 60.1L 150.6 63.6L 149.3 43.6L 65.3 40ZM 149.3 43.6L 40.1 63.1L 41.5 83.2L 150.6 63.6ZM 41.5 83.2L 165.4 88.2L 164.1 68.1L 40.1 63.1ZM 164.1 68.1L 103.5 78.4L 103.3 98.7L 165.4 88.2ZM 103.3 98.7L 150 107.5L 149.1 87L 103.5 78.4ZM 149.1 87L 123.6 94.1L 120.9 115.7L 150 107.5ZM 120.9 115.7L 151.3 133L 155.1 112.2L 123.6 94.1ZM 155.1 112.2L 138.1 114.9L 141.3 134.6L 151.3 133ZM 33.5 84L 14.7 84.9L 15.6 104.9L 34.4 104ZM 191.1 87.2L 175.4 85.8L 173.6 105.7L 189.2 107.1ZM 150.2 184.1L 145 182.6L 133.1 200L 144.7 203.3ZM 133.1 200L 149.5 221.5L 157.8 199.5L 145 182.6ZM 157.8 199.5L 138.4 203.3L 131.3 225L 149.5 221.5ZM 131.3 225L 149.1 244.3L 156.3 222.5L 138.4 203.3ZM 156.3 222.5L 147.9 224.2L 134.9 247L 149.1 244.3ZM 134.9 247L 140.7 263.1L 154.9 243.5L 147.9 224.2ZM 154.9 243.5L 144.7 243.2L 131 262.8L 140.7 263.1ZM 131 262.8L 141.1 288.3L 155.8 271L 144.7 243.2ZM 155.8 271L 140.9 267.8L 127.8 285.5L 141.1 288.3ZM 127.8 285.5L 143.9 314.5L 155.1 293.4L 140.9 267.8ZM 155.1 293.4L 144.4 294.4L 134.4 315.3L 143.9 314.5ZM 134.4 315.3L 145.1 331.3L 153.6 308L 144.4 294.4ZM 153.6 308L 138.8 312.3L 130.1 335.6L 145.1 331.3ZM 130.1 335.6L 144 356.9L 153.8 335.4L 138.8 312.3ZM 153.8 335.4L 138.3 337.4L 141 357.3L 144 356.9Z" fill-rule="nonzero"></path></g></g></g><g id="g-root-2.g-2_fr_mcc3p3tr4u0z-fill" data-item-order="2999522980" transform="translate(373.99749755859375, 344.005859375)"><g id="2.g-2_fr_mcc3p3tr4u0z-fill" stroke="none" fill="#815d3b"><g><path d="M 110.5 5.8L 107 13.4L 120.9 30.8L 128.6 14.3ZM 120.9 30.8L 146.5 25.2L 132.6 7.8L 107 13.4ZM 132.6 7.8L 123.5 27.2L 137.8 43.9L 146.5 25.2ZM 137.8 43.9L 160.6 37.3L 149.3 19.8L 123.5 27.2ZM 149.3 19.8L 134.9 36.5L 143.2 57.6L 160.6 37.3ZM 143.2 57.6L 174.1 60.9L 168.3 40.2L 134.9 36.5ZM 168.3 40.2L 153.6 51.4L 159.5 72L 174.1 60.9ZM 159.5 72L 192.3 74.8L 185.6 54.2L 153.6 51.4ZM 185.6 54.2L 166.4 70.8L 175.1 89.8L 192.3 74.8ZM 175.1 89.8L 211.8 84.7L 201.2 66L 166.4 70.8ZM 201.2 66L 181.5 90.4L 192.6 108.5L 211.8 84.7ZM 192.6 108.5L 225.1 101.5L 214.8 83.3L 181.5 90.4ZM 214.8 83.3L 203.2 95.7L 217.9 109.3L 225.1 101.5Z" fill-rule="nonzero"></path></g></g><g id="2.g-2_fr_mcc3p3tr4u0z-fill" stroke="none" fill="#815d3b"><g><path d="M 173 100.5L 154.2 99.2L 148.5 118.9L 171.7 120.4ZM 148.5 118.9L 184.8 138.9L 190 118.9L 154.2 99.2ZM 190 118.9L 154.3 118.7L 148.5 138.7L 184.8 138.9ZM 148.5 138.7L 180.5 158.6L 180.6 135.1L 154.3 118.7ZM 180.6 135.1L 165.6 144.3L 167.2 166.7L 180.5 158.6ZM 167.2 166.7L 192.7 177.7L 192.6 155.9L 165.6 144.3ZM 192.6 155.9L 180.2 162.9L 169.7 183.8L 173 203.8L 188.6 183.1L 187.8 179.8L 192.7 177.7ZM 188.6 183.1L 159.5 184.4L 151.8 204.8L 173 203.8ZM 151.8 204.8L 176.9 229.2L 185.3 209.5L 159.5 184.4ZM 185.3 209.5L 156.7 208.5L 149.5 228.3L 176.9 229.2ZM 149.5 228.3L 176.6 249.8L 183.8 230L 156.7 208.5ZM 183.8 230L 153.5 229.2L 146.9 249.1L 176.6 249.8ZM 146.9 249.1L 180.5 273L 185.6 252L 153.5 229.2ZM 185.6 252L 156.3 256.3L 151.6 277.2L 180.5 273ZM 151.6 277.2L 177.7 294.7L 184.6 275.3L 156.3 256.3ZM 184.6 275.3L 157.8 272.8L 155.9 292.7L 177.7 294.7ZM 159.1 164.6L 149.4 168.2L 156.3 187L 166.1 183.3Z" fill-rule="nonzero"></path></g></g><g id="2.g-2_fr_mcc3p3tr4u0z-fill" stroke="none" fill="#815d3b"><g><path d="M 112.2 9.9L 98.4 7.9L 91.3 27.1L 109.3 29.7ZM 91.3 27.1L 122.2 46.6L 125.3 24.9L 98.4 7.9ZM 125.3 24.9L 66.9 41.7L 69.5 61.8L 122.2 46.6ZM 69.5 61.8L 145.9 64.1L 144 44L 66.9 41.7ZM 144 44L 57.9 63.2L 59.9 83.2L 145.9 64.1ZM 59.9 83.2L 162.3 85.2L 161.2 65.2L 57.9 63.2ZM 161.2 65.2L 105.3 72.6L 102 93.2L 162.3 85.2ZM 102 93.2L 145 114L 149.5 93.9L 105.3 72.6ZM 149.5 93.9L 123.4 94L 116.8 114L 145 114ZM 116.8 114L 143 133.7L 151.6 115.2L 123.4 94ZM 151.6 115.2L 138.3 112.1L 133.7 131.5L 143 133.7ZM 50.7 63.1L 40.9 65.5L 45.5 84.9L 55.3 82.6ZM 184.7 88.6L 173.3 85.5L 168 104.8L 179.5 107.9ZM 145.7 180.2L 142 181.6L 135.7 205.6L 153.1 198.8ZM 135.7 205.6L 149.5 222.6L 155 197.7L 142 181.6ZM 155 197.7L 136 206.9L 132.6 230.8L 149.5 222.6ZM 132.6 230.8L 149.4 246.2L 153.1 222.5L 136 206.9ZM 153.1 222.5L 144.9 227.3L 135 250.4L 134.3 251.6L 140.3 249L 136.3 268.4L 142.3 287L 156.2 269.3L 152.9 261.7L 145.8 268.2L 152.4 242.8L 153 244.6L 149.4 246.2ZM 156.2 269.3L 142.4 266.7L 138.7 286.3L 142.3 287Z" fill-rule="nonzero"></path></g></g></g><g id="g-root-1.g-1_fr_1uqj4xjtr4wzr-fill" data-item-order="2999522988" transform="translate(325.99749755859375, 410.005859375)"><g id="1.g-1_fr_1uqj4xjtr4wzr-fill" stroke="none" fill="#954643"><g><path d="M 103.1 4.5L 100.9 5.6L 97.7 29.9L 112.4 22.2ZM 97.7 29.9L 121.2 51.9L 127.9 30.8L 100.9 5.6ZM 127.9 30.8L 63.9 39.6L 65.2 59.6L 121.2 51.9ZM 65.2 59.6L 144.4 60.3L 141.9 40.3L 63.9 39.6ZM 141.9 40.3L 38.3 68.3L 41.2 88.2L 144.4 60.3ZM 41.2 88.2L 164.2 84.8L 161.9 64.8L 38.3 68.3ZM 161.9 64.8L 36.4 90.3L 39.1 110.2L 164.2 84.8ZM 39.1 110.2L 181 100.3L 177.6 80.5L 36.4 90.3ZM 177.6 80.5L 157.1 88.9L 146.7 99.5L 141.6 109.1L 57.7 125.8L 58.6 146L 142.8 129.2L 161.7 111.5L 163.3 105.4L 181 100.3ZM 58.6 146L 146.1 155.7L 144.8 135.4L 57.7 125.8ZM 144.8 135.4L 55.1 157.1L 57.5 177.1L 146.1 155.7ZM 57.5 177.1L 154.5 176.4L 152.5 156.5L 55.1 157.1ZM 152.5 156.5L 57.6 174.4L 59.1 194.5L 154.5 176.4ZM 59.1 194.5L 149 197.4L 146.6 177.3L 57.6 174.4ZM 146.6 177.3L 53 203.2L 55.7 223.1L 149 197.4ZM 55.7 223.1L 149.6 222.5L 148.5 202.5L 53 203.2ZM 148.5 202.5L 90.1 208.7L 92.2 228.6L 149.6 222.5ZM 146 90L 54.9 105L 58.1 124.8L 149.3 109.7Z" fill-rule="nonzero"></path></g></g><g id="1.g-1_fr_1uqj4xjtr4wzr-fill" stroke="none" fill="#954643"><g><path d="M 115.2 5.7L 103.6 10L 107.6 29.9L 122.2 24.4ZM 107.6 29.9L 141.5 28.5L 131.6 8.9L 103.6 10ZM 131.6 8.9L 119.8 23.5L 130.1 42.6L 141.5 28.5ZM 130.1 42.6L 164.2 39.1L 155.1 19.9L 119.8 23.5ZM 155.1 19.9L 136.3 38.8L 145.3 58.2L 164.2 39.1ZM 145.3 58.2L 172.9 56L 159.7 36.9L 136.3 38.8ZM 159.7 36.9L 150.7 56.3L 164.4 74.1L 172.9 56ZM 164.4 74.1L 197.1 68.2L 186 49.8L 150.7 56.3ZM 186 49.8L 171.5 68.5L 182.7 86.7L 197.1 68.2ZM 182.7 86.7L 207.1 81.9L 194.2 64.1L 171.5 68.5ZM 194.2 64.1L 182.4 85.2L 194.3 104.7L 207.1 81.9ZM 194.3 104.7L 220.1 103.5L 215.5 83.7L 182.4 85.2ZM 215.5 83.7L 206.9 87.4L 214.9 105.8L 220.1 103.5Z" fill-rule="nonzero"></path></g></g><g id="1.g-1_fr_1uqj4xjtr4wzr-fill" stroke="none" fill="#954643"><g><path d="M 170.2 101.9L 162.1 95.8L 150.8 112.4L 158.2 117.9ZM 150.8 112.4L 183.5 132.7L 186.6 111.1L 162.1 95.8ZM 186.6 111.1L 156.9 119.4L 152.7 141.4L 183.5 132.7ZM 152.7 141.4L 178.6 161.3L 185 141L 156.9 119.4ZM 185 141L 152.9 142.3L 149.8 162.5L 178.6 161.3ZM 149.8 162.5L 183.1 174.6L 182.8 153.2L 152.9 142.3ZM 182.8 153.2L 155.1 164L 152.6 186.5L 183.1 174.6ZM 152.6 186.5L 182.9 207L 187.6 186L 155.1 164ZM 187.6 186L 149.7 191.9L 148.3 212.4L 182.9 207ZM 148.3 212.4L 180 222L 180.5 201.3L 149.7 191.9ZM 180.5 201.3L 146.6 209.7L 151.5 229.1L 180 222Z" fill-rule="nonzero"></path></g></g></g><g id="g-root-jump_4o6gmvtr4wst-fill" data-item-order="3000000000" transform="translate(49.99749755859375, 98.005859375)"></g><g id="g-root-tx_identify_1hhkiwntr4uf7-fill" data-item-order="3000000000" transform="translate(109.99749755859375, 98.005859375)"><g id="tx_identify_1hhkiwntr4uf7-fill" stroke="none" fill="#f4f4f4"><g><text style="font: bold 20px &quot;Shantell Sans&quot;, cursive; white-space: pre;" font-weight="bold" font-size="20px" font-family="'Shantell Sans', cursive"><tspan x="12" y="35" dominant-baseline="ideographic">Identify Load </tspan><tspan x="12" y="59" dominant-baseline="ideographic">Bursts</tspan></text></g></g></g><g id="g-root-tx_recogniz_qv9z93tr4uf8-fill" data-item-order="3000000000" transform="translate(109.99749755859375, 158.005859375)"><g id="tx_recogniz_qv9z93tr4uf8-fill" stroke="none" fill="#f4f4f4"><g><text style="font: 15px &quot;Shantell Sans&quot;, cursive; white-space: pre;" font-size="15px" font-family="'Shantell Sans', cursive"><tspan x="12" y="29" dominant-baseline="ideographic">Recognizing periods of </tspan><tspan x="12" y="47" dominant-baseline="ideographic">increased demand</tspan></text></g></g></g><g id="g-root-expa_1urs33rtr93bc-fill" data-item-order="3000000000" transform="translate(49.99749755859375, 218.005859375)"></g><g id="g-root-tx_scaleupt_hvw4hjtr924m-fill" data-item-order="3000000000" transform="translate(109.99749755859375, 218.005859375)"><g id="tx_scaleupt_hvw4hjtr924m-fill" stroke="none" fill="#f4f4f4"><g><text style="font: bold 20px &quot;Shantell Sans&quot;, cursive; white-space: pre;" font-weight="bold" font-size="20px" font-family="'Shantell Sans', cursive"><tspan x="12" y="35" dominant-baseline="ideographic">Scale-Up </tspan><tspan x="12" y="59" dominant-baseline="ideographic">Throughput</tspan></text></g></g></g><g id="g-root-tx_enhancin_qss2wntr92q7-fill" data-item-order="3000000000" transform="translate(109.99749755859375, 278.005859375)"><g id="tx_enhancin_qss2wntr92q7-fill" stroke="none" fill="#f4f4f4"><g><text style="font: 15px &quot;Shantell Sans&quot;, cursive; white-space: pre;" font-size="15px" font-family="'Shantell Sans', cursive"><tspan x="12" y="29" dominant-baseline="ideographic">Enhancing system </tspan><tspan x="12" y="47" dominant-baseline="ideographic">capacity to handle load</tspan></text></g></g></g><g id="g-root-gate_ddkt6ftqs7ik-fill" data-item-order="3000000000" transform="translate(49.99749755859375, 338.005859375)"></g><g id="g-root-tx_addproxy_v2zeevtqs6wy-fill" data-item-order="3000000000" transform="translate(109.99749755859375, 338.005859375)"><g id="tx_addproxy_v2zeevtqs6wy-fill" stroke="none" fill="#f4f4f4"><g><text style="font: bold 20px &quot;Shantell Sans&quot;, cursive; white-space: pre;" font-weight="bold" font-size="20px" font-family="'Shantell Sans', cursive"><tspan x="12" y="35" dominant-baseline="ideographic">Add Proxy Nodes</tspan></text></g></g></g><g id="g-root-tx_integrat_1cuvvzrtqs9vn-fill" data-item-order="3000000000" transform="translate(109.99749755859375, 374.005859375)"><g id="tx_integrat_1cuvvzrtqs9vn-fill" stroke="none" fill="#f4f4f4"><g><text style="font: 15px &quot;Shantell Sans&quot;, cursive; white-space: pre;" font-size="15px" font-family="'Shantell Sans', cursive"><tspan x="12" y="29" dominant-baseline="ideographic">Integrating additional </tspan><tspan x="12" y="47" dominant-baseline="ideographic">nodes into the system</tspan></text></g></g></g><g id="g-root-bala_145hmlztqv30n-fill" data-item-order="3000000000" transform="translate(49.99749755859375, 434.005859375)"></g><g id="g-root-tx_configur_qss62ftqv2fh-fill" data-item-order="3000000000" transform="translate(109.99749755859375, 434.005859375)"><g id="tx_configur_qss62ftqv2fh-fill" stroke="none" fill="#f4f4f4"><g><text style="font: bold 20px &quot;Shantell Sans&quot;, cursive; white-space: pre;" font-weight="bold" font-size="20px" font-family="'Shantell Sans', cursive"><tspan x="12" y="35" dominant-baseline="ideographic">Configure Load </tspan><tspan x="12" y="59" dominant-baseline="ideographic">Balancing</tspan></text></g></g></g><g id="g-root-tx_distribu_1lwrn3rtqv0ni-fill" data-item-order="3000000000" transform="translate(109.99749755859375, 494.005859375)"><g id="tx_distribu_1lwrn3rtqv0ni-fill" stroke="none" fill="#f4f4f4"><g><text style="font: 15px &quot;Shantell Sans&quot;, cursive; white-space: pre;" font-size="15px" font-family="'Shantell Sans', cursive"><tspan x="12" y="29" dominant-baseline="ideographic">Distributing traffic evenly </tspan><tspan x="12" y="47" dominant-baseline="ideographic">across nodes</tspan></text></g></g></g><g id="g-root-2_1um5whjtr3fuz-fill" data-item-order="3000000000" transform="translate(49.99749755859375, 554.005859375)"></g><g id="g-root-tx_configur_vb3kjbtr21op-fill" data-item-order="3000000000" transform="translate(109.99749755859375, 554.005859375)"><g id="tx_configur_vb3kjbtr21op-fill" stroke="none" fill="#f4f4f4"><g><text style="font: bold 20px &quot;Shantell Sans&quot;, cursive; white-space: pre;" font-weight="bold" font-size="20px" font-family="'Shantell Sans', cursive"><tspan x="12" y="35" dominant-baseline="ideographic">Configure Fail-</tspan><tspan x="12" y="59" dominant-baseline="ideographic">Over</tspan></text></g></g></g><g id="g-root-tx_ensuring_1qegkhjtr232i-fill" data-item-order="3000000000" transform="translate(109.99749755859375, 614.005859375)"><g id="tx_ensuring_1qegkhjtr232i-fill" stroke="none" fill="#f4f4f4"><g><text style="font: 15px &quot;Shantell Sans&quot;, cursive; white-space: pre;" font-size="15px" font-family="'Shantell Sans', cursive"><tspan x="12" y="32" dominant-baseline="ideographic">Ensuring system </tspan><tspan x="12" y="50" dominant-baseline="ideographic">reliability through </tspan><tspan x="12" y="68" dominant-baseline="ideographic">redundancy</tspan></text></g></g></g><g id="g-root-5.g-5_fr_18gxpyvtr4v0v-stroke" data-item-order="2999522956" transform="translate(517.99853515625, 146.005859375)"><g id="5.g-5_fr_18gxpyvtr4v0v-stroke" fill="none" stroke-linecap="round" stroke-linejoin="round" stroke-miterlimit="4" stroke="#ffffff" stroke-width="4"><g><path d="M 101.5 10C 113.2 9.3 124.9 8.8 136.5 10C 149.8 25.1 165.8 37.6 179.1 52.6C 194.4 69.8 211.1 85.9 228.1 101.5C 216.4 101.9 204.7 100.3 193.1 101.5C 178.1 84.3 161.9 68 144.6 53.1C 129.2 39.8 116.7 23.5 101.5 10"></path><path d="M 101.541992 10L 136.513392 10L 228.056292 101.5429L 193.084892 101.5429L 101.541992 10Z"></path></g></g><g id="5.g-5_fr_18gxpyvtr4v0v-stroke" fill="none" stroke-linecap="round" stroke-linejoin="round" stroke-miterlimit="4" stroke="#ffffff" stroke-width="4"><g><path d="M 150.9 167.5C 160.6 167 170.4 166.3 180.1 167.5C 171.3 157 159.8 148.9 150.9 138.4C 149.6 126.2 151.9 113.8 150.9 101.5C 162.2 99.9 173.6 101.8 185 101.5C 186.2 128.9 186.6 156.4 185 183.8C 183.5 208.5 183.6 233.3 185 258C 186.6 285.4 184.9 312.9 185 340.3C 185.1 366.1 184.6 391.8 185 417.5C 185.4 441.7 185.1 465.8 185 490C 173.7 488.6 162.3 490 150.9 490C 150 469.9 151.8 449.7 150.9 429.6C 150.1 409.7 150.1 389.7 150.9 369.7C 151.7 348.7 150.4 327.6 150.9 306.6C 151.5 283.8 150.6 261.1 150.9 238.3C 151.2 214.7 151.1 191.1 150.9 167.5"></path><path d="M 150.922852 167.542869L 180.056252 167.542869L 150.922852 138.409469L 150.922852 101.542969L 184.999552 101.542969L 184.999552 489.999969L 150.922852 489.999969L 150.922852 167.542869Z"></path></g></g><g id="5.g-5_fr_18gxpyvtr4v0v-stroke" fill="none" stroke-linecap="round" stroke-linejoin="round" stroke-miterlimit="4" stroke="#ffffff" stroke-width="4"><g><path d="M 10 101.5C 25.5 84.7 41.5 68.3 58.6 53C 73.7 39.4 86.4 23.5 101.5 10C 111.9 19 121.9 28.5 130.7 39.1C 140.8 51.4 152.3 62.6 164.5 72.9C 174.7 81.7 183.3 92.3 193.1 101.5C 179.1 100.5 164.9 99.9 150.9 101.5C 152.3 113.8 149.7 126.2 150.9 138.4C 129.8 117.9 109.4 96.7 88.5 76C 76.9 76 65.2 76.1 53.5 76C 45.6 85.1 37.5 94.1 28 101.5C 22.1 100.8 16 101.3 10 101.5M 137 490C 141.6 490.3 146.3 489.4 150.9 490C 148.9 475 151.1 459.9 150.9 444.8C 150.8 430.7 151.3 416.6 150.9 402.5C 150.5 387.8 151.1 373.1 150.9 358.4C 150.7 341.2 149.1 324 150.9 306.9C 152.5 291.9 150.2 276.7 150.9 261.7C 151.6 247 149.6 232.1 150.9 217.4C 152.4 200.9 152.4 184.1 150.9 167.5C 146.3 168.1 141.3 165.9 137 167.5C 135.8 180.6 138.4 193.9 137 206.9C 135.5 220.2 137.2 233.7 137 247.1C 136.7 261.8 137.5 276.5 137 291.2C 136.6 304.2 136.6 317.2 137 330.2C 137.4 343.7 137.6 357.3 137 370.9C 136.4 384.1 136.7 397.5 137 410.8C 137.3 422.7 135.4 434.7 137 446.5C 138.9 460.8 136.2 475.5 137 490"></path><path d="M 10 101.5429L 101.5429 10L 193.0858 101.5429L 150.9143 101.5429L 150.9142 138.4008L 88.5134 76L 53.542 76L 27.999 101.5429L 10 101.5429ZM 136.999 490L 150.9133 490L 150.9142 167.5428L 136.999 167.5428L 136.999 490Z"></path></g></g></g><g id="g-root-4.g-4_fr_deto6vtr4vt7-stroke" data-item-order="2999522964" transform="translate(469.99749755859375, 212.005859375)"><g id="4.g-4_fr_deto6vtr4vt7-stroke" fill="none" stroke-linecap="round" stroke-linejoin="round" stroke-miterlimit="4" stroke="#ffffff" stroke-width="4"><g><path d="M 101.5 10C 113.2 10.6 124.9 11.1 136.5 10C 145.7 20.4 156.6 29.2 166 39.5C 176.1 50.6 187 61.1 198 71.5C 208.3 81.2 217.3 92.3 228.1 101.5C 216.5 99.9 204.7 102.6 193.1 101.5C 175.9 85.9 159 69.8 143.8 52.3C 130.7 37.2 116.6 23 101.5 10"></path><path d="M 101.542969 10L 136.514369 10L 228.057269 101.5429L 193.085869 101.5429L 101.542969 10Z"></path></g></g><g id="4.g-4_fr_deto6vtr4vt7-stroke" fill="none" stroke-linecap="round" stroke-linejoin="round" stroke-miterlimit="4" stroke="#ffffff" stroke-width="4"><g><path d="M 150.9 167.5C 160.6 168.1 170.4 168.6 180.1 167.5C 170.9 157.3 160.1 148.6 150.9 138.4C 149.8 126.2 151.3 113.8 150.9 101.5C 162.2 103.2 173.7 100.5 185 101.5C 186.4 129.3 186.6 157.1 185 184.9C 183.3 213.4 183 242.2 185 270.7C 186.8 297.2 186.5 324 185 350.5C 183.6 375 184 399.5 185 424C 173.8 422 162.2 423 150.9 424C 149.9 409.2 149.6 394.3 150.9 379.6C 152.1 366.2 151.9 352.8 150.9 339.4C 149.8 324.7 151.8 309.8 150.9 295C 150.1 280.1 151.6 265.2 150.9 250.3C 150.2 235.2 149.9 220.2 150.9 205.2C 151.8 192.6 151.9 180 150.9 167.5"></path><path d="M 150.90918 167.542869L 180.05728 167.542869L 150.90918 138.394769L 150.90918 101.542969L 184.99998 101.542969L 184.99998 423.999969L 150.90918 423.999969L 150.90918 167.542869Z"></path></g></g><g id="4.g-4_fr_deto6vtr4vt7-stroke" fill="none" stroke-linecap="round" stroke-linejoin="round" stroke-miterlimit="4" stroke="#ffffff" stroke-width="4"><g><path d="M 10 101.5C 20 92.4 30 83.1 38.8 72.7C 48.1 61.8 58.5 52 69.1 42.4C 80.4 32.1 90.2 20.2 101.5 10C 118.6 25.5 133.7 43 150.4 58.9C 165 72.7 179.6 86.6 193.1 101.5C 179.1 99.9 164.9 103.2 150.9 101.5C 151.8 113.8 150.3 126.1 150.9 138.4C 129.4 118.3 108.2 97.8 88.5 76C 77 74 65.2 75 53.5 76C 45.6 85.1 37.2 93.8 28 101.5C 22 102.2 16 101.1 10 101.5M 137 424C 138 401.5 138 379 137 356.5C 136 333.6 138.1 310.6 137 287.8C 136 266.1 137.1 244.4 137 222.7C 136.9 204.3 135.2 185.9 137 167.5C 141.6 167 146.4 168.4 150.9 167.5C 152 193.9 151.7 220.3 150.9 246.6C 150.1 273.4 149.1 300.2 150.9 326.9C 153.1 359.2 150.3 391.6 150.9 424C 146.3 424.5 141.6 423.2 137 424"></path><path d="M 10 101.5429L 101.5429 10L 193.0857 101.5429L 150.9143 101.5429L 150.9143 138.3999L 88.5144 76L 53.543 76L 28 101.5429L 10 101.5429ZM 137 424L 137 167.543L 150.9143 167.5428L 150.9143 424L 137 424Z"></path></g></g></g><g id="g-root-3.g-3_fr_1hdtodztr4wef-stroke" data-item-order="2999522972" transform="translate(421.99749755859375, 278.005859375)"><g id="3.g-3_fr_1hdtodztr4wef-stroke" fill="none" stroke-linecap="round" stroke-linejoin="round" stroke-miterlimit="4" stroke="#ffffff" stroke-width="4"><g><path d="M 101.5 10C 113.2 10.2 124.9 8.7 136.5 10C 151.4 25.4 166 41.3 182.1 55.5C 198.3 69.9 213.1 85.9 228.1 101.5C 216.4 102 204.6 100 193.1 101.5C 177.8 88.4 164 73.5 150.3 58.7C 134.6 41.9 116.7 27.3 101.5 10"></path><path d="M 101.542969 10L 136.514369 10L 228.057269 101.5429L 193.085869 101.5429L 101.542969 10Z"></path></g></g><g id="3.g-3_fr_1hdtodztr4wef-stroke" fill="none" stroke-linecap="round" stroke-linejoin="round" stroke-miterlimit="4" stroke="#ffffff" stroke-width="4"><g><path d="M 150.9 167.5C 150.7 184.6 152.4 201.6 150.9 218.6C 149.6 233.9 149.6 249.4 150.9 264.8C 152.2 280.5 151.3 296.2 150.9 311.9C 150.5 327.3 151.4 342.6 150.9 358C 162.3 357.5 173.7 359.5 185 358C 183.4 344.3 184.3 330.3 185 316.5C 185.7 301.9 183.5 287.2 185 272.7C 186.5 257.9 184.7 243.1 185 228.3C 185.3 213.9 184.2 199.4 185 185.1C 185.8 171.5 186.5 157.9 185 144.5C 183.4 130.3 184.8 115.8 185 101.5C 173.7 100.1 162.3 102.1 150.9 101.5C 150.9 113.8 149.2 126.2 150.9 138.4C 160.1 148.6 170.7 157.5 180.1 167.5C 170.4 168.1 160.6 167.3 150.9 167.5"></path><path d="M 150.919434 167.542869L 150.919434 357.999969L 185.000034 357.999969L 185.000034 101.542969L 150.919434 101.542969L 150.919434 138.405469L 180.056734 167.542869L 150.919434 167.542869Z"></path></g></g><g id="3.g-3_fr_1hdtodztr4wef-stroke" fill="none" stroke-linecap="round" stroke-linejoin="round" stroke-miterlimit="4" stroke="#ffffff" stroke-width="4"><g><path d="M 10 101.5C 21.1 90.8 30.8 78.7 42.7 68.8C 53.3 60 63.2 50.2 72 39.6C 80.9 28.8 91.4 19.6 101.5 10C 117.9 24.2 132.5 40.3 147.5 55.9C 162.4 71.5 177.6 86.7 193.1 101.5C 179.1 103.1 164.9 102.2 150.9 101.5C 150.7 113.8 152.4 126.2 150.9 138.4C 129.1 118.7 108.1 97.9 88.5 76C 76.9 75.4 65.2 76.2 53.5 76C 46.3 85.7 37.5 94.1 28 101.5C 22 101.1 16 101.5 10 101.5M 137 358C 141.6 357.8 146.3 357.3 150.9 358C 151.3 342.5 151.5 327.1 150.9 311.6C 150.3 295 151.7 278.5 150.9 261.9C 150.1 245.3 149.5 228.5 150.9 212C 152.2 197.2 151.2 182.3 150.9 167.5C 146.3 167.4 141.6 166.6 137 167.5C 136.7 190.3 137 213 137 235.8C 137 254.3 136.4 272.8 137 291.3C 137.7 313.6 135.6 335.8 137 358"></path><path d="M 10 101.5429L 101.5429 10L 193.0857 101.5429L 150.9143 101.5429L 150.9143 138.4004L 88.5139 76L 53.5425 76L 27.9997 101.5429L 10 101.5429ZM 137 358L 150.9143 358L 150.9143 167.5429L 137 167.543L 137 358Z"></path></g></g></g><g id="g-root-2.g-2_fr_mcc3p3tr4u0z-stroke" data-item-order="2999522980" transform="translate(373.99749755859375, 344.005859375)"><g id="2.g-2_fr_mcc3p3tr4u0z-stroke" fill="none" stroke-linecap="round" stroke-linejoin="round" stroke-miterlimit="4" stroke="#ffffff" stroke-width="4"><g><path d="M 101.5 10C 113.2 9.6 124.9 8.9 136.5 10C 151.1 26.5 167.9 41 183.3 56.8C 198 71.9 214.3 85.6 228.1 101.5C 216.5 99.7 204.7 101 193.1 101.5C 176.8 87 162.6 70.3 146.8 55.2C 131.3 40.5 116.6 25.1 101.5 10"></path><path d="M 101.54248 10L 136.51388 10L 228.05678 101.5429L 193.08538 101.5429L 101.54248 10Z"></path></g></g><g id="2.g-2_fr_mcc3p3tr4u0z-stroke" fill="none" stroke-linecap="round" stroke-linejoin="round" stroke-miterlimit="4" stroke="#ffffff" stroke-width="4"><g><path d="M 150.9 167.5C 160.6 167.2 170.4 166.4 180.1 167.5C 171.4 156.9 160.5 148.3 150.9 138.4C 150.4 126.1 149.4 113.7 150.9 101.5C 162.3 101 173.8 99.7 185 101.5C 185 123 183.7 144.4 185 165.8C 186.3 187.3 184.7 208.8 185 230.3C 185.2 250.9 185.7 271.5 185 292C 173.7 290.6 162.2 290.9 150.9 292C 151.2 269.7 151.9 247.3 150.9 225C 150.1 205.9 152.4 186.7 150.9 167.5"></path><path d="M 150.919434 167.542869L 180.056734 167.542869L 150.919434 138.405469L 150.919434 101.542969L 185.000034 101.542969L 185.000034 291.999969L 150.919434 291.999969L 150.919434 167.542869Z"></path></g></g><g id="2.g-2_fr_mcc3p3tr4u0z-stroke" fill="none" stroke-linecap="round" stroke-linejoin="round" stroke-miterlimit="4" stroke="#ffffff" stroke-width="4"><g><path d="M 101.5 10C 85.7 26.4 70.1 43.1 53.2 58.4C 38.1 72 24.6 87.3 10 101.5C 15.9 102.4 22.2 100.2 28 101.5C 37.7 94.4 45.4 84.9 53.5 76C 65.2 75.2 76.9 76.5 88.5 76C 109.5 96.6 130.1 117.6 150.9 138.4C 149.8 126.2 150.2 113.8 150.9 101.5C 164.9 100.5 179.1 100.2 193.1 101.5C 175.7 86.2 160.1 68.9 143.8 52.3C 129.9 38 116.4 23.3 101.5 10M 150.9 167.5C 146.3 166.9 141.6 167.4 136.9 167.5C 134.9 190.1 135.9 212.9 136.9 235.5C 137.7 254.3 136.9 273.1 136.9 292C 141.4 293.4 146.2 291.9 150.9 292C 151.8 272.6 152.2 253.1 150.9 233.8C 149.4 211.7 149.9 189.6 150.9 167.5"></path><path d="M 101.5428 10L 10 101.5428L 28 101.5428L 53.5428 76L 88.5139 76L 150.9143 138.4003L 150.9143 101.5428L 193.0857 101.5428L 101.5428 10ZM 150.9194 167.543L 136.8872 167.543L 136.8872 292L 150.9194 292L 150.9194 167.543Z"></path></g></g></g><g id="g-root-1.g-1_fr_1uqj4xjtr4wzr-stroke" data-item-order="2999522988" transform="translate(325.99749755859375, 410.005859375)"><g id="1.g-1_fr_1uqj4xjtr4wzr-stroke" fill="none" stroke-linecap="round" stroke-linejoin="round" stroke-miterlimit="4" stroke="#ffffff" stroke-width="4"><g><path d="M 101.5 10C 86.6 27.4 70 43.3 53 58.6C 37.9 72.1 23.5 86.5 10 101.5C 25.3 99.6 40.9 100.1 56.3 101.5C 57.1 115.9 54.3 130.5 56.3 144.7C 58 157.4 58 170.4 56.3 183.1C 54.4 197.3 56.1 211.7 56.3 226C 87.8 226.7 119.4 227.8 150.9 226C 151.7 203.4 149.3 180.8 150.9 158.3C 152.2 139.4 151.7 120.4 150.9 101.5C 164.9 100.7 179 101.5 193.1 101.5C 179.7 87.4 166.5 72.9 151.8 60.2C 133.8 44.8 117.3 27.7 101.5 10"></path><path d="M 101.5429 10L 10 101.5429L 56.2857 101.5429L 56.2857 226L 150.9143 226L 150.9143 101.5429L 193.0857 101.5429L 101.5429 10Z"></path></g></g><g id="1.g-1_fr_1uqj4xjtr4wzr-stroke" fill="none" stroke-linecap="round" stroke-linejoin="round" stroke-miterlimit="4" stroke="#ffffff" stroke-width="4"><g><path d="M 101.5 10C 113.1 8.3 124.9 8.8 136.5 10C 150.5 26 165.8 40.9 181.6 55.1C 197.9 69.7 211.2 87.5 228.1 101.5C 216.4 102.3 204.6 99.6 193.1 101.5C 178.5 87.3 162.8 74 149.8 58.3C 135.3 40.8 118.8 24.8 101.5 10"></path><path d="M 101.54248 10L 136.51388 10L 228.05678 101.5429L 193.08538 101.5429L 101.54248 10Z"></path></g></g><g id="1.g-1_fr_1uqj4xjtr4wzr-stroke" fill="none" stroke-linecap="round" stroke-linejoin="round" stroke-miterlimit="4" stroke="#ffffff" stroke-width="4"><g><path d="M 150.9 101.5C 162.1 99.8 173.6 100.3 184.9 101.5C 183.4 121.9 183.8 142.4 184.9 162.8C 186 183.9 182.9 205 184.9 226C 173.6 226.8 162.1 224.1 150.9 226C 150.7 206.4 149 186.7 150.9 167.2C 153.1 145.4 152.7 123.4 150.9 101.5"></path><path d="M 150.914551 101.542969L 184.857407 101.542969L 184.857407 226.000122L 150.914551 226.000122Z"></path></g></g></g><g id="g-root-jump_4o6gmvtr4wst-stroke" data-item-order="3000000000" transform="translate(49.99749755859375, 98.005859375)"><g id="jump_4o6gmvtr4wst-stroke" fill="none" stroke-linecap="round" stroke-linejoin="round" stroke-miterlimit="4" stroke="#f4f4f4" stroke-width="2"><g><path d="M 56.400002 56.599998C 41.599998 57.799999 26.6 56.799999 11.6 56.599998C 13.6 41.599998 10.2 26.4 11.6 11.6M 18 22.6C 20.6 23 23.4 22.6 26 22.6M 48 22.6C 50.599998 23.200001 53.400002 22.6 56 22.6M 22 29.6C 24.6 28.6 27.4 30 30 29.6M 21.200001 15.6C 23.6 16.6 26.6 14.6 29.200001 15.6M 38 15.6C 40.400002 16.6 43.599998 14.6 46 15.6M 18 36.599998C 20.6 36.200001 23.6 35.599998 26 36.599998M 36 36.599998C 38.599998 35.599998 41.400002 36.200001 44 36.599998M 30 43.599998C 32.599998 42.799999 35.400002 43.400002 38 43.599998M 11.6 43.599998C 14 42.599998 16.799999 44 19.6 43.599998M 34 50.599998C 36.599998 50.799999 39.400002 49.799999 42 50.599998M 46 43.599998C 48.599998 43.400002 51.400002 44.400002 54 43.599998M 56.486 56.5L 11.5 56.5L 11.5 11.5M 18 22.5L 26 22.5M 48 22.5L 56 22.5M 22 29.5L 30 29.5M 21.125 15.5L 29.125 15.5M 38 15.5L 46 15.5M 18 36.5L 26 36.5M 36 36.5L 44 36.5M 30 43.5L 38 43.5M 11.5 43.5L 19.5 43.5M 34 50.5L 42 50.5M 46 43.5L 54 43.5"></path></g></g></g><g id="g-root-tx_identify_1hhkiwntr4uf7-stroke" data-item-order="3000000000" transform="translate(109.99749755859375, 98.005859375)"></g><g id="g-root-tx_recogniz_qv9z93tr4uf8-stroke" data-item-order="3000000000" transform="translate(109.99749755859375, 158.005859375)"></g><g id="g-root-expa_1urs33rtr93bc-stroke" data-item-order="3000000000" transform="translate(49.99749755859375, 218.005859375)"><g id="expa_1urs33rtr93bc-stroke" fill="none" stroke-linecap="round" stroke-linejoin="round" stroke-miterlimit="4" stroke="#f4f4f4" stroke-width="2"><g><path d="M 49.428574 11.714286C 50.457146 11.371428 51.828571 11.714286 52.857143 11.714286C 54.914288 11.371428 56.971428 13.428572 56.285713 15.142858C 55.942856 16.171429 56.285713 17.542858 56.285713 18.571428M 11.714286 18.571428C 11.714286 17.542858 11.714286 16.171429 11.714286 15.142858C 11.714286 13.085714 13.428572 11.028571 15.142858 11.714286C 16.171429 12.057143 17.542858 11.714286 18.571428 11.714286M 28.857143 11.714286C 31.942858 13.085714 35.714287 11.714286 39.142857 11.714286M 56.285713 28.857143C 56.285713 32.285713 56.285713 35.714287 56.285713 39.142857M 11.714286 28.857143C 12.4 32.285713 10.685715 36.057144 11.714286 39.142857M 49.428574 56.285713C 50.457146 55.942856 51.828571 55.942856 52.857143 56.285713C 54.57143 56.971428 56.628574 54.57143 56.285713 52.857143C 55.942856 51.828571 56.285713 50.457146 56.285713 49.428574M 11.714286 49.428574C 12.057143 50.457146 12.057143 51.828571 11.714286 52.857143C 11.028571 54.57143 13.085714 56.628574 15.142858 56.285713C 16.171429 56.285713 17.542858 56.285713 18.571428 56.285713M 28.857143 56.285713C 32.285713 56.628574 35.714287 56.628574 39.142857 56.285713M 27.142857 23.714287C 31.6 22.342857 36.399998 23.371429 40.857143 23.714287C 40.857143 23.714287 43.942856 23.714287 44.285713 27.142857C 44.628574 31.6 45.657143 36.399998 44.285713 40.857143C 44.285713 40.857143 44.285713 44.971428 40.857143 44.285713C 36.399998 43.600002 31.6 42.914288 27.142857 44.285713C 27.142857 44.285713 22.342857 43.942856 23.714287 40.857143C 25.428572 36.742859 25.428572 31.6 23.714287 27.142857C 23.714287 27.142857 23.714287 24.057142 27.142857 23.714287M 49.428574 11.714286L 52.857143 11.714286C 54.750694 11.714286 56.285713 13.24931 56.285713 15.142858L 56.285713 18.571428M 11.714286 18.571428L 11.714286 15.142858C 11.714286 13.24931 13.24931 11.714286 15.142858 11.714286L 18.571428 11.714286M 28.857143 11.714286L 39.142857 11.714286M 56.285713 28.857143L 56.285713 39.142857M 11.714286 28.857143L 11.714286 39.142857M 49.428574 56.285713L 52.857143 56.285713C 54.750694 56.285713 56.285713 54.750694 56.285713 52.857143L 56.285713 49.428574M 11.714286 49.428574L 11.714286 52.857143C 11.714286 54.750694 13.24931 56.285713 15.142858 56.285713L 18.571428 56.285713M 28.857143 56.285713L 39.142857 56.285713M 27.142857 23.714287L 40.857143 23.714287C 40.857143 23.714287 44.285713 23.714287 44.285713 27.142857L 44.285713 40.857143C 44.285713 40.857143 44.285713 44.285713 40.857143 44.285713L 27.142857 44.285713C 27.142857 44.285713 23.714287 44.285713 23.714287 40.857143L 23.714287 27.142857C 23.714287 27.142857 23.714287 23.714287 27.142857 23.714287"></path></g></g></g><g id="g-root-tx_scaleupt_hvw4hjtr924m-stroke" data-item-order="3000000000" transform="translate(109.99749755859375, 218.005859375)"></g><g id="g-root-tx_enhancin_qss2wntr92q7-stroke" data-item-order="3000000000" transform="translate(109.99749755859375, 278.005859375)"></g><g id="g-root-gate_ddkt6ftqs7ik-stroke" data-item-order="3000000000" transform="translate(49.99749755859375, 338.005859375)"><g id="gate_ddkt6ftqs7ik-stroke" fill="none" stroke-linecap="round" stroke-linejoin="round" stroke-miterlimit="4" stroke="#f4f4f4" stroke-width="2"><g><path d="M 19.4 31.4C 20.799999 26.799999 18.4 21.6 19.4 17C 20 14.8 21.4 13.4 23.4 13C 27.4 12.4 31.6 13.6 35.400002 13C 37.599998 12.6 39.400002 14.8 39.400002 17C 39.599998 28.4 37.200001 39.799999 39.400002 51C 40 53.200001 37.799999 54.799999 35.400002 55C 31.6 55.400002 27.4 55.599998 23.4 55C 21.4 54.599998 19.799999 53.200001 19.4 51C 18.6 46.599998 20 41.799999 19.4 37.400002M 39.400002 37.400002C 41.799999 36.599998 44.200001 37.599998 46.400002 37.400002C 46.400002 39.400002 47.200001 41.599998 46.400002 43.400002C 49.599998 40.200001 52.599998 36.799999 56.400002 34.400002C 53.200001 31.200001 49.200001 29 46.400002 25.4C 46.400002 27.4 47 29.4 46.400002 31.4C 44.200001 32 41.599998 30.6 39.400002 31.4M 11.6 37.400002C 17.200001 38.200001 22.799999 38 28.6 37.400002M 28.6 31.4C 22.799999 31 17 30 11.6 31.4M 19.49988 31.4L 19.49988 17C 19.49988 14.8 21.299881 13 23.49988 13L 35.499802 13C 37.699799 13 39.499802 14.8 39.499802 17L 39.499802 51C 39.499802 53.200001 37.699799 55 35.499802 55L 23.49988 55C 21.299881 55 19.49988 53.200001 19.49988 51L 19.49988 37.400002M 39.499802 37.400002L 46.499802 37.400002L 46.499802 43.400002L 56.499802 34.400002L 46.499802 25.3999L 46.499802 31.4L 39.499802 31.4M 11.5 37.400002L 28.5 37.400002M 28.5 31.4L 11.5 31.4"></path></g></g></g><g id="g-root-tx_addproxy_v2zeevtqs6wy-stroke" data-item-order="3000000000" transform="translate(109.99749755859375, 338.005859375)"></g><g id="g-root-tx_integrat_1cuvvzrtqs9vn-stroke" data-item-order="3000000000" transform="translate(109.99749755859375, 374.005859375)"></g><g id="g-root-bala_145hmlztqv30n-stroke" data-item-order="3000000000" transform="translate(49.99749755859375, 434.005859375)"><g id="bala_145hmlztqv30n-stroke" fill="none" stroke-linecap="round" stroke-linejoin="round" stroke-miterlimit="4" stroke="#f4f4f4" stroke-width="2"><g><path d="M 25.6 39.200001C 25.799999 40.200001 24.6 41.200001 23.6 41.200001C 20.200001 40.799999 16.6 40 13.6 41.200001C 12.4 41.400002 11.2 40.200001 11.6 39.200001C 12.4 35.799999 12.4 32.200001 11.6 29.200001C 11.2 28 12.4 27.4 13.6 27.200001C 16.799999 26.4 20.200001 27.6 23.6 27.200001C 24.6 27 25.4 27.799999 25.6 29.200001C 25.6 32.400002 26.6 36 25.6 39.200001M 56.599998 37.599998C 56.599998 38.599998 55.799999 39.599998 54.599998 39.599998C 52.200001 39.400002 49.799999 40.200001 47.599998 39.599998C 46.400002 39 45.200001 38.599998 45.599998 37.599998C 45.799999 35.200001 45 32.799999 45.599998 30.6C 45.799999 29.4 46.400002 28.200001 47.599998 28.6C 49.799999 29 52.200001 28.200001 54.599998 28.6C 55.599998 28.6 56.200001 29.4 56.599998 30.6C 57.200001 32.799999 56.400002 35.200001 56.599998 37.599998M 56.599998 20.6C 56.599998 21.6 55.599998 22.4 54.599998 22.6C 52.200001 22.799999 49.799999 22.4 47.599998 22.6C 46.400002 22.6 45.400002 21.6 45.599998 20.6C 45.799999 18.200001 45.599998 15.8 45.599998 13.6C 45.400002 12.4 46.200001 11.4 47.599998 11.6C 49.799999 11.6 52.200001 11.6 54.599998 11.6C 55.599998 11.4 56.400002 12.2 56.599998 13.6C 56.799999 15.8 57.400002 18.4 56.599998 20.6M 56.599998 54.599998C 56 55.599998 55.599998 56.200001 54.599998 56.599998C 52.200001 57.200001 49.799999 56.400002 47.599998 56.599998C 46.400002 56.599998 45 55.599998 45.599998 54.599998C 46.400002 52.400002 45.400002 49.799999 45.599998 47.599998C 45.599998 46.400002 46.200001 45.599998 47.599998 45.599998C 49.799999 45.400002 52.200001 46.200001 54.599998 45.599998C 55.599998 45 56.599998 46.200001 56.599998 47.599998C 56.400002 49.799999 56.599998 52.200001 56.599998 54.599998M 24.4 27.4C 30 25 34.200001 20.6 39.400002 17.6M 10 10M 25.6 34.200001C 30.200001 34.799999 34.799999 34 39.599998 34.200001M 10 10M 35.200001 29.6C 36.599998 31 38.200001 32.400002 39.599998 34.200001C 37.799999 35.400002 36.799999 37.200001 35.200001 38.599998M 10 10M 33.400002 16.200001C 35.200001 17.200001 37.400002 17 39.599998 17.6C 38.599998 19.4 39 21.799999 38.200001 23.799999M 10 10M 24.4 40.799999C 28.799999 45 33.599998 49 39.400002 50.599998M 10 10M 33.400002 52.200001C 35 51 37.400002 51 39.599998 50.799999C 39.200001 48.599998 38.599998 46.599998 38.200001 44.599998M 25.5 39.099998C 25.5 40.299999 24.700001 41.099998 23.5 41.099998L 13.5 41.099998C 12.3 41.099998 11.5 40.299999 11.5 39.099998L 11.5 29.1001C 11.5 27.900101 12.3 27.1001 13.5 27.1001L 23.5 27.1001C 24.700001 27.1001 25.5 27.900101 25.5 29.1001L 25.5 39.099998ZM 56.5 37.5C 56.5 38.700001 55.700001 39.5 54.5 39.5L 47.5 39.5C 46.299999 39.5 45.5 38.700001 45.5 37.5L 45.5 30.5C 45.5 29.299999 46.299999 28.5 47.5 28.5L 54.5 28.5C 55.700001 28.5 56.5 29.299999 56.5 30.5L 56.5 37.5ZM 56.5 20.5C 56.5 21.700001 55.700001 22.5 54.5 22.5L 47.5 22.5C 46.299999 22.5 45.5 21.700001 45.5 20.5L 45.5 13.5C 45.5 12.3 46.299999 11.5 47.5 11.5L 54.5 11.5C 55.700001 11.5 56.5 12.3 56.5 13.5L 56.5 20.5ZM 56.5 54.5C 56.5 55.700001 55.700001 56.5 54.5 56.5L 47.5 56.5C 46.299999 56.5 45.5 55.700001 45.5 54.5L 45.5 47.5C 45.5 46.299999 46.299999 45.5 47.5 45.5L 54.5 45.5C 55.700001 45.5 56.5 46.299999 56.5 47.5L 56.5 54.5ZM 24.476799 27.3125L 39.299999 17.5M 10 10M 25.5 34.099998L 39.5 34.099998M 10 10M 35.099998 29.5L 39.5 34.099998L 35.099998 38.5M 10 10M 33.299999 16.1001L 39.5 17.500099L 38.099998 23.700081M 10 10M 24.476799 40.887199L 39.299999 50.699799M 10 10M 33.299999 52.099998L 39.5 50.700001L 38.099998 44.5"></path></g></g></g><g id="g-root-tx_configur_qss62ftqv2fh-stroke" data-item-order="3000000000" transform="translate(109.99749755859375, 434.005859375)"></g><g id="g-root-tx_distribu_1lwrn3rtqv0ni-stroke" data-item-order="3000000000" transform="translate(109.99749755859375, 494.005859375)"></g><g id="g-root-2_1um5whjtr3fuz-stroke" data-item-order="3000000000" transform="translate(49.99749755859375, 554.005859375)"><g id="2_1um5whjtr3fuz-stroke" fill="none" stroke-linecap="round" stroke-linejoin="round" stroke-miterlimit="4" stroke="#f4f4f4" stroke-width="2"><g><path d="M 57 41.200001C 55.799999 41.599998 54.200001 40.799999 53 41.200001C 52 41.599998 51.200001 40.400002 51 39.200001C 49.599998 31.4 54 22.6 51 15.2C 50.599998 14.2 52 13.6 53 13.2C 54.200001 13 55.799999 13.6 57 13.2M 51 19.200001C 35.799999 13.2 37 13.8 24.4 12.8C 19.200001 12.4 17 16.4 15 21.200001C 12.2 24.799999 12.8 30 11.2 34C 10.8 35.200001 10.8 37 11.8 37.599998C 12.8 38.400002 13.8 39 15 39.200001C 18.200001 40 21.6 40 24.799999 39.200001C 26 39 27.4 39.799999 28 40.799999C 28.6 42 28.799999 43 28.6 44.200001C 28.6 46.599998 27.200001 48.599998 27 51C 26.6 52.599998 27.200001 54.400002 28.799999 55C 30.4 55.400002 32 55.200001 33 53.799999C 36.400002 49.400002 41.400002 45.400002 42.799999 40C 43.200001 38.599998 44.799999 38.599998 46 38.200001C 47.599998 37.799999 49.400002 37.799999 51 38.200001M 57 41.256001L 53 41.256001C 51.895432 41.256001 51 40.360569 51 39.256001L 51 15.256001C 51 14.15143 51.895432 13.256001 53 13.256001L 57 13.256001M 51 19.256001C 36.321999 11.8 37.038002 12.786 24.470001 12.786C 19.200001 12.786 16.554001 16.216 15 21.242001L 15 21.274L 11.186 34.073997L 11.186 34.098C 10.82023 35.30732 11.047299 36.618355 11.798466 37.634224C 12.549633 38.650089 13.736586 39.251358 15 39.256001L 24.799999 39.256001C 26.040823 39.255928 27.211422 39.831703 27.96876 40.814598C 28.726097 41.797489 28.984409 43.076199 28.667999 44.276001L 26.903999 50.964001C 26.481949 52.569103 27.271074 54.245895 28.776913 54.943699C 30.282753 55.641502 32.072205 55.159622 33.024002 53.800003L 42.804001 39.944C 43.553375 38.881878 44.772129 38.250126 46.071999 38.25L 51 38.25"></path></g></g></g><g id="g-root-tx_configur_vb3kjbtr21op-stroke" data-item-order="3000000000" transform="translate(109.99749755859375, 554.005859375)"></g><g id="g-root-tx_ensuring_1qegkhjtr232i-stroke" data-item-order="3000000000" transform="translate(109.99749755859375, 614.005859375)"></g></g></g></svg>